<svg data-name="Group 31" xmlns="http://www.w3.org/2000/svg" width="48.927" height="48.927"><path data-name="Path 8" d="M18.736 25.442H6.71A6.711 6.711 0 010 18.732V6.71A6.624 6.624 0 016.71 0h12.026a6.711 6.711 0 016.71 6.71v12.022a6.8 6.8 0 01-6.71 6.71m23.481 23.484H30.195a6.711 6.711 0 01-6.71-6.71V30.194a6.711 6.711 0 016.71-6.71h12.022a6.711 6.711 0 016.71 6.71v12.022a6.624 6.624 0 01-6.71 6.71" fill="#3d3b3c" fill-rule="evenodd"/><path data-name="Path 9" d="M26.281 32.991L15.936 22.646a3.714 3.714 0 010-5.172l.839-.839a3.714 3.714 0 015.172 0L32.292 26.98a3.714 3.714 0 010 5.172l-.839.839a3.713 3.713 0 01-5.172 0" fill="#3d3b3c" fill-rule="evenodd"/></svg>