<svg xmlns="http://www.w3.org/2000/svg" width="18.124" height="18.124"><g data-name="Group 24" fill="#fff" fill-rule="evenodd"><path data-name="Path 8" d="M6.936 9.424h-4.45A2.486 2.486 0 010 6.938V2.485A2.454 2.454 0 012.486 0h4.45a2.486 2.486 0 012.486 2.486v4.452a2.52 2.52 0 01-2.486 2.486m8.7 8.7h-4.451a2.486 2.486 0 01-2.486-2.486v-4.454a2.486 2.486 0 012.486-2.486h4.451a2.486 2.486 0 012.486 2.486v4.453a2.454 2.454 0 01-2.486 2.486"/><path data-name="Path 9" d="M9.735 12.22L5.903 8.388a1.376 1.376 0 010-1.916l.311-.311a1.376 1.376 0 011.916 0l3.831 3.835a1.376 1.376 0 010 1.916l-.311.311a1.375 1.375 0 01-1.916 0"/></g></svg>