<svg xmlns="http://www.w3.org/2000/svg" width="808.597" height="786.194"><defs><clipPath id="a"><path data-name="Rectangle 397" transform="translate(568.888 2257.888)" fill="#fff" stroke="#707070" d="M0 0h641.924v641.924H0z"/></clipPath><clipPath id="b"><path data-name="Rectangle 371" transform="translate(1019 244)" fill="#fff" stroke="#707070" d="M0 0h753v753H0z"/></clipPath></defs><g data-name="Group 128"><g data-name="Group 26" transform="rotate(-14.98 -7642.355 3288.204)" opacity=".15" clip-path="url(#a)"><g data-name="blob-shape (4)"><path data-name="Path 529" d="M1124.273 2333.841c61.668 31.893 97.422 119.473 83.469 192.976s-77.614 133.177-139.282 191.357c-61.667 58.054-121.341 114.739-187.618 121.466-66.4 6.852-139.531-36.378-200.326-94.557-60.8-58.055-109.382-131.184-111.5-206.306-1.993-75.247 42.482-152.487 103.278-184.38 60.8-32.017 138.036-18.812 220.384-23.92s169.927-28.653 231.595 3.364z" fill="#044aaf"/></g></g><g data-name="Mask Group 25" clip-path="url(#b)" transform="translate(-1019 -227.403)"><g transform="translate(1019 380.853)"><path data-name="Rectangle 372" fill="#3f3d56" d="M32.7 358.868h570.398v2.023H32.7z"/><path data-name="Rectangle 373" fill="#3f3d56" d="M0 0h653.488v318.007H0z"/><path data-name="Path 503" d="M653.488 24.463v-8.737h-20.094V0h-8.736v15.726H28.831V0h-8.737v15.726H0v8.736h20.094v269.084H0v8.736h20.094v15.726h8.736v-15.726h595.828v15.726h8.736v-15.726h20.094v-8.736h-20.094V24.463zm-28.83 269.083H28.831V24.463h595.827z" opacity=".1"/><path data-name="Rectangle 374" fill="#d0cde1" d="M288.84 41.935h103.039v98.014H288.84z"/><path data-name="Rectangle 375" fill="#044aaf" d="M300.549 53.644h79.621v60.887h-79.621z"/><path data-name="Rectangle 376" fill="#f2f2f2" d="M318.069 63.65h27.913v27.913h-27.913z"/><path data-name="Path 504" d="M328.755 70.631v33.895h33.895V70.631zm32.423 32.425h-30.953V72.101h30.953z" fill="#3f3d56"/><path data-name="Rectangle 377" fill="#f2f2f2" d="M300.47 120.574h43.308v2.279H300.47z"/><circle data-name="Ellipse 60" cx="4.559" cy="4.559" r="4.559" transform="translate(335.8 43.075)" fill="#3f3d56"/><path data-name="Rectangle 378" fill="#d0cde1" d="M327.701 183.3H430.74v98.014H327.701z"/><path data-name="Rectangle 379" fill="#044aaf" d="M339.41 195.009h79.621v60.887H339.41z"/><path data-name="Rectangle 380" fill="#f2f2f2" d="M339.331 263.079h43.308v2.279h-43.308z"/><path data-name="Rectangle 381" fill="#f2f2f2" d="M339.331 269.917h43.308v2.279h-43.308z"/><circle data-name="Ellipse 61" cx="9.118" cy="9.118" r="9.118" transform="translate(344.459 216.352)" fill="#3f3d56"/><circle data-name="Ellipse 62" cx="9.118" cy="9.118" r="9.118" transform="translate(370.103 216.352)" fill="#f2f2f2"/><circle data-name="Ellipse 63" cx="9.118" cy="9.118" r="9.118" transform="translate(395.746 216.352)" fill="#ff6584"/><circle data-name="Ellipse 64" cx="4.559" cy="4.559" r="4.559" transform="translate(374.661 184.44)" fill="#3f3d56"/><path data-name="Rectangle 382" fill="#d0cde1" d="M170.006 152.676h103.039v98.014H170.006z"/><path data-name="Rectangle 383" fill="#044aaf" d="M181.715 164.385h79.621v60.887h-79.621z"/><circle data-name="Ellipse 65" cx="19.331" cy="19.331" r="19.331" transform="translate(196.893 182.613)" fill="#f2f2f2"/><path data-name="Path 505" d="M221.922 216.856a24.236 24.236 0 1124.236-24.236 24.236 24.236 0 01-24.236 24.236zm0-47.591a23.355 23.355 0 1023.356 23.354 23.355 23.355 0 00-23.355-23.355z" fill="#3f3d56"/><path data-name="Rectangle 384" fill="#f2f2f2" d="M181.636 238.153h43.308v2.279h-43.308z"/><path data-name="Rectangle 385" fill="#f2f2f2" d="M181.636 231.315h60.404v2.279h-60.404z"/><circle data-name="Ellipse 66" cx="4.559" cy="4.559" r="4.559" transform="translate(216.966 153.816)" fill="#3f3d56"/><path data-name="Rectangle 386" fill="#d0cde1" d="M56.755 40.188h103.039v98.014H56.755z"/><path data-name="Rectangle 387" fill="#044aaf" d="M68.464 51.897h79.621v60.887H68.464z"/><path data-name="Rectangle 388" fill="#3f3d56" d="M99.71 99.562h17.129v5.076H99.71z"/><path data-name="Rectangle 389" fill="#3f3d56" d="M79.003 60.042h58.544v2.175H79.003z"/><path data-name="Rectangle 390" fill="#3f3d56" d="M79.003 66.931h58.544v2.175H79.003z"/><path data-name="Rectangle 391" fill="#3f3d56" d="M79.003 73.82h58.544v2.175H79.003z"/><path data-name="Rectangle 392" fill="#3f3d56" d="M79.003 80.708h58.544v2.175H79.003z"/><path data-name="Rectangle 393" fill="#3f3d56" d="M79.003 87.597h58.544v2.175H79.003z"/><path data-name="Rectangle 394" fill="#f2f2f2" d="M68.385 118.827h43.308v2.279H68.385z"/><path data-name="Rectangle 395" fill="#f2f2f2" d="M68.385 124.525h60.404v2.279H68.385z"/><circle data-name="Ellipse 67" cx="4.559" cy="4.559" r="4.559" transform="translate(103.716 41.327)" fill="#3f3d56"/><path data-name="Path 506" d="M475.512 104.218l74.623 5.483 21.1 1.551-1.31-1.31 3.963 57.327 1.982 28.664c.08 1.158.162 2.316.24 3.474.065.963.33 1.891-.811 2.128-2.268.473-4.63.669-6.927.959q-7.006.884-14.043 1.488a355.887 355.887 0 01-56.429.354q-7.042-.516-14.06-1.313c-1.74-.2-3.9-.272-4.535-2.223a38.178 38.178 0 01-1.064-6.386q-1.979-13.949-2.7-28.041a321.735 321.735 0 011.983-56.105q.422-3.418.922-6.826c.241-1.65-2.284-2.362-2.527-.7a324.423 324.423 0 00-3.238 58.1q.508 14.577 2.334 29.067.462 3.66 1 7.309c.288 1.936.359 4.219 1.511 5.882 1.112 1.6 2.978 2.12 4.813 2.364 2.335.311 4.685.534 7.029.763a355.725 355.725 0 0058.557.866q7.365-.5 14.706-1.3 3.616-.4 7.223-.867 1.766-.23 3.529-.476a16.247 16.247 0 003.244-.565c2.208-.8 2.208-2.926 2.07-4.911l-.51-7.383-1.021-14.766-4.113-59.5-.51-7.383a1.349 1.349 0 00-1.31-1.31l-74.623-5.483-21.1-1.551c-1.683-.124-1.675 2.5 0 2.621z" fill="#d0cde1"/><path data-name="Path 507" d="M507.491 135.156c.377-1-.571 1.154-.095.2.126-.253.245-.509.379-.759a14.509 14.509 0 01.886-1.439c.322-.461.81-.638-.141.163a6.854 6.854 0 00.552-.64 16.115 16.115 0 011.417-1.374c.359-.308 1.039-.571-.177.112.241-.135.464-.337.694-.492q.707-.475 1.459-.88.375-.2.76-.386c.436-.208 1.162-.28-.211.071.589-.151 1.159-.429 1.748-.6q.751-.213 1.518-.359c.457-.086 1.287-.021-.274.015.279-.006.565-.06.844-.079a15.926 15.926 0 011.691-.025c.282.011.562.039.843.056.934.056-1.414-.26 0 .01a14.271 14.271 0 011.641.414 6.244 6.244 0 00.8.282l-.725-.312q.267.116.529.243a14.58 14.58 0 011.51.845c.242.155.474.323.712.485.746.507-1-.854.058.073q.539.472 1.033.991.3.311.577.638c.315.366.555 1.035-.1-.164.6 1.1 1.351 2.093 1.917 3.225.482.965-.44-1.2-.073-.183.1.274.205.545.3.821q.28.828.483 1.68c.135.569.2 1.149.327 1.718-.344-1.566-.092-.66-.059-.235q.046.581.056 1.164.012.727-.035 1.454c-.018.284-.082.585-.078.869-.02-1.471.106-.738.015-.244a16.483 16.483 0 01-.407 1.7q-.125.419-.272.83-.131.365-.276.725.423-.984.067-.187c-1.448 2.9-3.251 5.594-4.675 8.5a38.781 38.781 0 00-3.4 23.356 5.244 5.244 0 002.409 3.133 5.353 5.353 0 004.039.528c2.955-.956 4.116-3.536 3.661-6.448-.16-1.026.084.915-.021-.118-.045-.443-.09-.885-.121-1.33q-.094-1.332-.077-2.668.015-1.145.11-2.286a6.78 6.78 0 01.138-1.328s-.169 1.054-.055.449c.047-.25.081-.5.125-.753a32.368 32.368 0 011.3-4.978c.126-.36.263-.716.4-1.074.35-.944-.364.758.059-.156.377-.815.768-1.62 1.2-2.409 1.8-3.315 3.846-6.421 5.16-9.987a20.955 20.955 0 001.163-8.737c-.486-6.114-3.078-12.317-7.91-16.275a20.63 20.63 0 00-18.226-4.153 21.791 21.791 0 00-15.28 13.522c-.968 2.571 1.074 5.859 3.661 6.448a5.386 5.386 0 006.448-3.661z" fill="#d0cde1"/><path data-name="Path 508" d="M525.805 197.612a4.357 4.357 0 10-4.357-4.357 4.406 4.406 0 004.357 4.357z" fill="#d0cde1"/><path data-name="Rectangle 396" fill="#044aaf" d="M28.895 350.023h24.462v24.462H28.895z"/><path data-name="Path 509" d="M68.21 360.507h-29.7v-29.7h29.7zm-28.413-1.291h27.121v-27.121H39.797z" fill="#3f3d56"/><path data-name="Path 510" d="M598.012 217.975l-3.495 10.481s-21.841 25.336-6.116 28.83 17.477-27.08 17.477-27.08l4.368-8.736z" fill="#ffb8b8"/><path data-name="Path 511" d="M622.478 91.297s-5.242-.874-6.989 20.094-2.621 57.661-2.621 57.661l-20.098 51.544 25.336 7.863 12.231-58.534z" fill="#575a89"/><path data-name="Path 512" d="M611.116 403.188l-2.621 16.6h23.589l-.874-16.6z" fill="#ffb8b8"/><path data-name="Path 513" d="M687.123 421.535l-1.748 22.715L701.1 446v-26.213z" fill="#ffb8b8"/><path data-name="Path 514" d="M620.726 186.524l-20.094 115.321 5.246 104.838h27.083v-95.227l26.209-48.924 20.968 61.155 5.24 102.216 29.7-5.242-6.989-99.6s-5.242-132.794-10.484-134.542-76.879.005-76.879.005z" fill="#2f2e41"/><path data-name="Path 515" d="M613.737 414.546s0-8.736-6.989-3.495-15.726 14.852-15.726 14.852-33.2 18.347-9.61 20.968a49.557 49.557 0 0038.44-12.231l2.626 2.616s13.978-2.621 13.978-6.115a67.456 67.456 0 00-.874-8.737s-1.837-14.819-3.977-11.778-14.373 9.162-17.868 3.92z" fill="#2f2e41"/><path data-name="Path 516" d="M701.978 439.008s-15.726-7.863-19.22-.874-6.115 20.968-6.115 20.968-11.365 21.841 8.735 20.094 19.22-13.1 19.22-15.726-.874-8.736 0-11.357-2.62-13.105-2.62-13.105z" fill="#2f2e41"/><circle data-name="Ellipse 68" cx="24.462" cy="24.462" r="24.462" transform="translate(643.004 7.863)" fill="#ffb8b8"/><path data-name="Path 517" d="M651.3 44.119l-.87 31.451 31.451-2.621v-28.83z" fill="#ffb8b8"/><path data-name="Path 518" d="M683.629 57.224s-14.852 9.61-19.22 11.357-13.978-6.989-13.978-6.989-2.621 1.747-2.621 3.495-1.747 8.736-1.747 8.736l-20.968 69.018 1.747 48.924s63.776 6.116 70.765-1.747-3.494-120.562-3.494-120.562z" fill="#d0cde1"/><path data-name="Path 519" d="M679.261 75.571s-23.589 8.736-31.451.874c-.001 0 11.357 2.62 31.451-.874z" opacity=".1"/><path data-name="Path 520" d="M741.29 265.156c-9.61 6.116-41.061 13.978-41.061 13.978s-3.433-73.954-15.726-85.617c-12.222-11.611-32.176-95.315-14.232-109.87a2.7 2.7 0 01.253-.21l11.354-26.213s1.747-2.621 5.242.874a95.4 95.4 0 017.863 9.61l.5.2 23.964 9.409-9.61 42.809s41.063 138.911 31.453 145.03z" fill="#575a89"/><path data-name="Path 521" d="M695.484 67.909L688.87 92.17l-18.6-8.527a2.688 2.688 0 01.253-.21l11.355-26.209s1.747-2.621 5.242.874a95.406 95.406 0 017.863 9.61z" opacity=".1"/><path data-name="Path 522" d="M649.994 61.156l-2.621 29.7-.14 1.354-19.955 189.978s-17.473-6.116-23.589-13.1 13.978-84.744 13.978-84.744l1.747-97.848s15.5-10.912 21.832-16.905c1.485-1.4 2.464-2.525 2.63-3.189.876-3.499 6.118-5.246 6.118-5.246z" fill="#575a89"/><path data-name="Path 523" d="M649.994 61.156l-2.621 29.7-.14 1.354-12.528-1.791 6.544-20.837c1.485-1.4 2.464-2.525 2.63-3.189.873-3.49 6.115-5.237 6.115-5.237z" opacity=".1"/><path data-name="Path 524" d="M696.734 208.365l-9.61 8.736s4.368 18.347 9.61 19.22c0 0 3.495-5.242 4.368-9.61s8.736-8.736 8.736-8.736z" fill="#ffb8b8"/><path data-name="Path 525" d="M708.091 75.571l11.357 1.747s37.567 63.776 33.2 86.491-39.314 62.029-39.314 62.029l-21.841-17.473 32.325-43.682-16.6-52.419z" fill="#575a89"/><path data-name="Path 526" d="M642.949 35.073s0-21.573 5.242-26.476h6.287s7.339-10.787 16.776-6.864 25.168 10.786 24.124 21.573a59.06 59.06 0 01-4.318 17.756s-1.747 0-5.642-5.864c-5.2-7.836 6.815-5.393-8.912-8.335s-25.164-6.864-27.261-2.942-6.296 11.152-6.296 11.152z" fill="#2f2e41"/><path data-name="Path 527" d="M654.378 10.061s.838-6.3 4.287-7.662z" fill="#2f2e41"/><path data-name="Path 528" d="M654.364 11.356s-1.75-6.115.87-8.737z" fill="#2f2e41"/></g></g></g></svg>