<svg xmlns="http://www.w3.org/2000/svg" xmlns:xlink="http://www.w3.org/1999/xlink" width="255" height="255"><defs><linearGradient id="a" x1="-13.852" y1="3.512" x2="-13.852" y2="2.512" gradientUnits="objectBoundingBox"><stop offset="0" stop-color="gray" stop-opacity=".251"/><stop offset=".54" stop-color="gray" stop-opacity=".122"/><stop offset="1" stop-color="gray" stop-opacity=".102"/></linearGradient><linearGradient id="c" x1="-14.487" y1="3.972" x2="-14.487" y2="2.972" xlink:href="#a"/><linearGradient id="d" x1="-15.813" y1="3.547" x2="-15.813" y2="2.547" xlink:href="#a"/><linearGradient id="e" x1="-16.199" y1="3.374" x2="-16.199" y2="2.375" xlink:href="#a"/><linearGradient id="f" x1=".5" y1="1" x2=".5" y2="0" xlink:href="#a"/><clipPath id="b"><path data-name="Rectangle 463" transform="translate(140.671 1290.671)" fill="#fff" stroke="#707070" d="M0 0h255v255H0z"/></clipPath></defs><g data-name="Mask Group 29" transform="translate(-140.671 -1290.671)" clip-path="url(#b)"><g transform="translate(141 1308.767)"><ellipse data-name="Ellipse 69" cx="31.519" cy="7.193" rx="31.519" ry="7.193" transform="translate(89.138 201.992)" fill="#044aaf" opacity=".1"/><path data-name="Path 534" d="M71.061 14.413c7.745-6.894 19.9-8.309 30.968-7.758 34.757 1.732 66.12 18.505 93.27 37.485 9.81 6.872 19.5 14.278 25.875 23.738 12.992 19.262 9.131 45.946-8.922 61.814-6.141 5.4-13.586 9.545-21.23 13.206-13.591 6.522-28.256 11.762-43.681 13.257-11 1.061-22.134.2-33.071-1.286-30.552-4.141-60.541-13.3-85.679-28.982-11.035-6.88-21.415-15.423-25.96-26.559S.995 74.119 12.253 67.535c4.656-2.723 10.221-3.953 15.672-5.107 8.023-1.7 16.173-3.375 23.412-6.833 7.477-3.569 16.332-10.47 14.848-18.369-1.586-8.474-2.858-15.919 4.876-22.813z" fill="#044aaf" opacity=".1"/><path data-name="Path 535" d="M60.869 54.175l-5.221 2.02-7.633 2.951a48.92 48.92 0 00-1.238-2.121c-1.808-3-4.8-7.657-7.464-11.754-3-4.627-5.584-8.516-5.584-8.516l1.872-.53 15.269-4.424z" fill="#e6ecf8"/><path data-name="Path 536" d="M60.868 54.175l-5.221 2.02a39.38 39.38 0 01-8.871.817c-1.808-3-4.8-7.657-7.464-11.754L35.6 36.206l15.269-4.428z" opacity=".1"/><path data-name="Path 537" d="M64.75 52.929s-8.113 4.8-20.227 3.712l-9.656-23.542 4.629-.8 16-2.747 9.071 22.923z" fill="#044aaf"/><path data-name="Path 538" d="M64.572 52.463a38.18 38.18 0 01-6.342-.18 20.247 20.247 0 01-6.894-1.936 20.868 20.868 0 01-4.507-3.031c-3.365-3.025-5.446-7.355-7.315-15.02l16-2.747z" opacity=".1"/><path data-name="Path 539" d="M70.525 51.148a44.274 44.274 0 01-12.066.451 20.308 20.308 0 01-6.894-1.936 21.031 21.031 0 01-4.507-3.031c-4.163-3.746-6.363-9.487-8.628-21.081a30.659 30.659 0 0019.766-2.858c-.013.011 3.301 20.692 12.329 28.455z" fill="#f9fafb"/><path data-name="Path 540" d="M58.46 51.6a20.307 20.307 0 01-6.894-1.936 21.031 21.031 0 01-4.507-3.031c3.545-.289 4.054-2.227 4.054-2.227A27.291 27.291 0 0058.46 51.6z" opacity=".1"/><path data-name="Path 541" d="M43.558 29.806s8.084-.456 10.34-2.2l.345 1.1a30.949 30.949 0 01-10.685 2.386z" fill="#044aaf" opacity=".3"/><path data-name="Path 542" d="M43.558 35.234s7.827-.427 13.739-3.285l.2.459s-4.7 2.739-13.941 3.447z" fill="#044aaf" opacity=".3"/><path data-name="Path 543" d="M44.187 37.357s7.829-.43 13.742-3.285l.2.456s-4.693 2.739-13.941 3.447z" fill="#044aaf" opacity=".3"/><path data-name="Path 544" d="M44.817 39.474s7.827-.427 13.739-3.285l.2.459s-4.7 2.739-13.941 3.447z" fill="#044aaf" opacity=".3"/><path data-name="Path 545" d="M45.446 41.595s7.829-.43 13.742-3.285l.2.456s-4.693 2.739-13.941 3.447z" fill="#044aaf" opacity=".3"/><path data-name="Path 546" d="M46.077 43.713s7.827-.427 13.739-3.285l.2.459s-4.7 2.739-13.941 3.447z" fill="#044aaf" opacity=".3"/><path data-name="Path 547" d="M254.161 75.678l.156.114.024-.247-.1-.22-.167.027z" fill="#464a5f"/><path data-name="Path 548" d="M254.161 75.678l.156.114.024-.247-.1-.22-.167.027z" opacity=".1"/><path data-name="Path 549" d="M254.157 75.678l.154.117-.106.178-.151-.032-.045-.061z" fill="#9c9ca1"/><path data-name="Path 550" d="M254.157 75.678l.154.117-.106.178-.151-.032-.045-.061z" opacity=".1"/><path data-name="Path 551" d="M225.095 55.074l-12.435 17.3a1.453 1.453 0 00.326 2.02l26.546 19.241a1.45 1.45 0 002.02-.318l12.655-17.343z" fill="#9c9ca1"/><path data-name="Path 552" d="M225.095 55.074l-12.435 17.3a1.453 1.453 0 00.326 2.02l26.546 19.241a1.45 1.45 0 002.02-.318l12.655-17.343z" opacity=".1"/><path data-name="Path 553" d="M225.046 54.785l-12.435 17.3a1.45 1.45 0 00.326 2.018l26.538 19.238a1.45 1.45 0 002.02-.321l12.655-17.34z" fill="#9c9ca1"/><path data-name="Path 554" d="M224.893 44.074l.329 10.574 29.112 20.9-.276-10.759a1.54 1.54 0 00-.652-1.222l-28.022-19.753a.308.308 0 00-.491.262z" fill="#464a5f"/><path data-name="Path 555" d="M224.893 44.074l.329 10.574 29.112 20.9-.276-10.759a1.54 1.54 0 00-.652-1.222l-28.022-19.753a.308.308 0 00-.491.262z" opacity=".1"/><path data-name="Path 556" d="M224.718 44.203l.329 10.582 29.112 20.9-.284-10.759a1.543 1.543 0 00-.655-1.222L225.2 43.951a.3.3 0 00-.483.255z" fill="#464a5f"/><g data-name="Group 97" opacity=".1"><path data-name="Path 557" d="M225.892 59.525l-.753 1.061a.292.292 0 00.066.4l1.061.8a.289.289 0 00.4-.058l.761-1a.289.289 0 00-.05-.406l-1.082-.854a.289.289 0 00-.406.056z"/><path data-name="Path 558" d="M227.855 60.936l-.753 1.061a.292.292 0 00.066.4l1.061.8a.289.289 0 00.4-.058l.761-1a.289.289 0 00-.05-.406l-1.071-.851a.289.289 0 00-.416.053z"/><path data-name="Path 559" d="M229.915 62.416l-.753 1.061a.292.292 0 00.066.4l1.061.8a.289.289 0 00.4-.058l.761-1a.292.292 0 00-.05-.406l-1.082-.851a.289.289 0 00-.406.053z"/><path data-name="Path 560" d="M231.999 63.914l-.753 1.061a.292.292 0 00.064.4l1.061.8a.289.289 0 00.4-.058l.761-1a.292.292 0 00-.05-.406l-1.082-.851a.289.289 0 00-.401.054z"/><path data-name="Path 561" d="M234.083 65.412l-.753 1.061a.292.292 0 00.064.4l1.061.8a.292.292 0 00.406-.058l.761-1a.292.292 0 00-.05-.406l-1.082-.851a.289.289 0 00-.406.053z"/><path data-name="Path 562" d="M236.26 66.777l-.933 1.326a.138.138 0 00.029.188l1.326.97a.135.135 0 00.188-.027l.947-1.241a.135.135 0 00-.024-.188l-1.326-1.061a.138.138 0 00-.207.032z"/><path data-name="Path 563" d="M238.344 68.275l-.933 1.326a.138.138 0 00.029.188l1.326.97a.135.135 0 00.188-.027l.947-1.241a.135.135 0 00-.024-.188l-1.326-1.061a.138.138 0 00-.207.032z"/><path data-name="Path 564" d="M240.189 69.601l-.936 1.326a.135.135 0 00.032.188l1.326.97a.138.138 0 00.191-.027l.947-1.238a.138.138 0 00-.024-.191l-1.326-1.061a.135.135 0 00-.209.032z"/><path data-name="Path 565" d="M242.254 71.085l-.933 1.326a.133.133 0 00.029.188l1.326.97a.138.138 0 00.191-.027l.947-1.238a.138.138 0 00-.024-.191l-1.326-1.047a.135.135 0 00-.209.019z"/><path data-name="Path 566" d="M244.249 72.526l-.933 1.326a.135.135 0 00.032.188l1.326.973a.135.135 0 00.188-.029l.947-1.238a.138.138 0 00-.024-.191l-1.326-1.047a.138.138 0 00-.209.019z"/><path data-name="Path 567" d="M246.253 73.962l-.933 1.326a.138.138 0 00.029.188l1.326.97a.135.135 0 00.188-.027l.947-1.241a.135.135 0 00-.024-.188l-1.326-1.047a.135.135 0 00-.207.019z"/><path data-name="Path 568" d="M248.257 75.402l-.936 1.326a.135.135 0 00.032.188l1.326.973a.138.138 0 00.191-.029l.947-1.238a.138.138 0 00-.024-.191l-1.326-1.061a.135.135 0 00-.209.032z"/><path data-name="Path 569" d="M224.522 61.429l-.75 1.061a.292.292 0 00.064.4l1.061.8a.294.294 0 00.406-.058l.761-1a.292.292 0 00-.05-.406l-1.082-.854a.294.294 0 00-.41.057z"/><path data-name="Path 570" d="M221.531 65.592l-.75 1.061a.292.292 0 00.064.4l1.061.8a.294.294 0 00.406-.056l.761-1a.292.292 0 00-.05-.406l-1.082-.854a.292.292 0 00-.41.055z"/><path data-name="Path 571" d="M226.484 62.837l-.753 1.061a.292.292 0 00.064.4l1.061.8a.294.294 0 00.406-.058l.761-1a.292.292 0 00-.05-.406l-1.082-.854a.292.292 0 00-.407.057z"/><path data-name="Path 572" d="M228.544 64.328l-.75 1.061a.292.292 0 00.064.4l1.061.8a.294.294 0 00.406-.056l.761-1a.292.292 0 00-.05-.406l-1.082-.854a.292.292 0 00-.41.055z"/><path data-name="Path 573" d="M230.629 65.82l-.75 1.061a.292.292 0 00.064.4l1.061.8a.294.294 0 00.406-.056l.761-1a.289.289 0 00-.05-.4l-1.082-.854a.292.292 0 00-.41.049z"/><path data-name="Path 574" d="M223.54 66.936l-.75 1.061a.292.292 0 00.064.4l1.061.8a.294.294 0 00.406-.056l.761-1a.289.289 0 00-.05-.4l-1.082-.854a.292.292 0 00-.41.049z"/><path data-name="Path 575" d="M225.601 68.416l-.75 1.061a.292.292 0 00.064.4l1.061.8a.294.294 0 00.406-.058l.761-1a.292.292 0 00-.05-.406l-1.082-.854a.294.294 0 00-.408.056z"/><path data-name="Path 576" d="M227.685 69.914l-.75 1.061a.292.292 0 00.064.4l1.061.8a.294.294 0 00.406-.058l.761-1a.292.292 0 00-.053-.406l-1.079-.854a.292.292 0 00-.41.057z"/><path data-name="Path 577" d="M232.712 67.318l-.75 1.061a.292.292 0 00.064.4l1.061.8a.294.294 0 00.406-.056l.761-1a.289.289 0 00-.05-.4l-1.071-.872a.292.292 0 00-.419.072z"/><path data-name="Path 578" d="M234.796 68.814l-.75 1.061a.292.292 0 00.064.4l1.061.8a.294.294 0 00.406-.056l.761-1a.289.289 0 00-.05-.4l-1.082-.854a.292.292 0 00-.41.049z"/><path data-name="Path 579" d="M236.975 70.179l-.936 1.326a.135.135 0 00.032.188l1.326.97a.138.138 0 00.191-.027l.947-1.238a.138.138 0 00-.024-.191l-1.326-1.061a.135.135 0 00-.209.032z"/><path data-name="Path 580" d="M238.819 71.504l-.933 1.326a.135.135 0 00.032.188l1.326.97a.133.133 0 00.188-.027l.947-1.238a.138.138 0 00-.024-.191l-1.326-1.061a.138.138 0 00-.209.032z"/><path data-name="Path 581" d="M240.886 72.99l-.936 1.326a.135.135 0 00.032.188l1.326.97a.133.133 0 00.188-.027l.947-1.238a.138.138 0 00-.024-.191l-1.326-1.047a.135.135 0 00-.207.019z"/><path data-name="Path 582" d="M242.886 74.429l-.933 1.326a.138.138 0 00.029.188l1.326.97a.135.135 0 00.188-.027l.947-1.241a.135.135 0 00-.024-.188l-1.326-1.061a.138.138 0 00-.207.032z"/><path data-name="Path 583" d="M227.123 66.3l-.753 1.061a.292.292 0 00.064.4l1.061.8a.292.292 0 00.406-.058l.761-1a.292.292 0 00-.05-.406l-1.066-.856a.289.289 0 00-.422.058z"/><path data-name="Path 584" d="M229.208 67.798l-.753 1.061a.292.292 0 00.064.4l1.061.8a.292.292 0 00.406-.058l.761-1a.292.292 0 00-.05-.406l-1.082-.851a.289.289 0 00-.406.053z"/><path data-name="Path 585" d="M231.289 69.296l-.75 1.061a.292.292 0 00.064.4l1.06.8a.292.292 0 00.406-.058l.761-1a.294.294 0 00-.05-.406l-1.082-.851a.292.292 0 00-.409.054z"/><path data-name="Path 586" d="M233.378 70.794l-.75 1.061a.292.292 0 00.064.4l1.061.8a.292.292 0 00.406-.058l.761-1a.292.292 0 00-.05-.406l-1.082-.851a.292.292 0 00-.41.054z"/><path data-name="Path 587" d="M235.552 72.159l-.933 1.326a.133.133 0 00.029.188l1.326.97a.138.138 0 00.191-.027l.947-1.241a.135.135 0 00-.024-.188l-1.326-1.047a.135.135 0 00-.209.019z"/><path data-name="Path 588" d="M237.398 73.484l-.936 1.326a.135.135 0 00.032.188l1.326.97a.138.138 0 00.191-.027l.944-1.238a.133.133 0 00-.024-.191l-1.326-1.047a.133.133 0 00-.207.019z"/><path data-name="Path 589" d="M239.476 74.97l-.936 1.326a.135.135 0 00.032.188l1.326.97a.138.138 0 00.191-.027l.947-1.238a.138.138 0 00-.024-.191l-1.326-1.061a.133.133 0 00-.209.032z"/><path data-name="Path 590" d="M241.461 76.41l-.933 1.326a.141.141 0 00.029.191l1.326.97a.138.138 0 00.188-.027l.946-1.241a.135.135 0 00-.024-.188l-1.326-1.061a.138.138 0 00-.207.029z"/><path data-name="Path 591" d="M244.887 75.866l-.936 1.326a.135.135 0 00.032.188l1.326.97a.135.135 0 00.191-.026l.947-1.238a.138.138 0 00-.024-.191l-1.326-1.047a.138.138 0 00-.209.019z"/><path data-name="Path 592" d="M246.9 77.31l-.933 1.326a.141.141 0 00.029.191l1.326.97a.138.138 0 00.188-.027l.946-1.241a.135.135 0 00-.024-.188l-1.326-1.061a.138.138 0 00-.207.029z"/><path data-name="Path 593" d="M237.914 77.126l-.88 1.238a.18.18 0 00.042.252l1.241.917a.18.18 0 00.265-.034l.891-1.167a.18.18 0 00-.032-.265l-1.254-.995a.183.183 0 00-.273.05z"/><path data-name="Path 594" d="M239.916 78.562l-.88 1.241a.18.18 0 00.04.252l1.244.917a.186.186 0 00.265-.037l.891-1.167a.183.183 0 00-.032-.265l-1.257-.989a.18.18 0 00-.27.048z"/><path data-name="Path 595" d="M241.915 80l-.88 1.241a.183.183 0 00.042.265l1.243.917a.18.18 0 00.265-.034l.891-1.169a.178.178 0 00-.032-.252l-1.254-.992a.186.186 0 00-.276.024z"/><path data-name="Path 596" d="M243.943 81.4l-.933 1.326a.138.138 0 00.032.191l1.326.97a.135.135 0 00.188-.027l.947-1.241a.135.135 0 00-.024-.188l-1.326-1.061a.138.138 0 00-.209.029z"/><path data-name="Path 597" d="M223.038 63.397l-.8 1.137a.292.292 0 00.069.406l3.113 2.217a.289.289 0 00.4-.061l.848-1.106a.289.289 0 00-.064-.414l-3.163-2.248a.289.289 0 00-.406.069z"/><path data-name="Path 598" d="M243.424 77.868l-.978 1.392a.135.135 0 00.032.188l3.365 2.386a.138.138 0 00.188-.029l1.034-1.352a.135.135 0 00-.029-.194l-3.42-2.431a.135.135 0 00-.191.04z"/><path data-name="Path 599" d="M229.806 71.292l-.936 1.294a.14.14 0 00.029.191l7.291 5.377a.138.138 0 00.188-.027l1.029-1.35a.135.135 0 00-.029-.194l-7.376-5.321a.135.135 0 00-.2.029z"/></g><path data-name="Path 600" d="M225.861 59.329l-.753 1.061a.292.292 0 00.064.4l1.061.8a.292.292 0 00.406-.056l.761-1a.289.289 0 00-.05-.406l-1.082-.854a.289.289 0 00-.406.053z" fill="#464a5f"/><path data-name="Path 601" d="M227.823 60.74l-.753 1.061a.292.292 0 00.064.4l1.061.8a.289.289 0 00.4-.056l.761-1a.289.289 0 00-.05-.406l-1.082-.854a.289.289 0 00-.401.055z" fill="#464a5f"/><path data-name="Path 602" d="M229.882 62.209l-.748 1.061a.292.292 0 00.064.4l1.061.8a.294.294 0 00.406-.058l.761-1a.289.289 0 00-.05-.406l-1.082-.854a.292.292 0 00-.411.056z" fill="#464a5f"/><path data-name="Path 603" d="M231.967 63.717l-.753 1.061a.292.292 0 00.064.4l1.061.8a.294.294 0 00.406-.058l.761-1a.289.289 0 00-.05-.406l-1.082-.854a.289.289 0 00-.406.056z" fill="#464a5f"/><path data-name="Path 604" d="M234.048 65.216l-.75 1.061a.292.292 0 00.064.4l1.061.8a.294.294 0 00.406-.058l.761-1a.292.292 0 00-.05-.406l-1.082-.854a.294.294 0 00-.41.057z" fill="#464a5f"/><path data-name="Path 605" d="M236.227 66.581l-.933 1.326a.135.135 0 00.029.188l1.326.97a.138.138 0 00.191-.027l.947-1.241a.135.135 0 00-.024-.188l-1.326-1.061a.138.138 0 00-.209.032z" fill="#464a5f"/><path data-name="Path 606" d="M238.311 68.08l-.933 1.326a.135.135 0 00.029.191l1.326.97a.141.141 0 00.191-.027l.947-1.241a.135.135 0 00-.024-.188l-1.326-1.061a.138.138 0 00-.209.029z" fill="#464a5f"/><path data-name="Path 607" d="M240.157 69.405l-.936 1.326a.135.135 0 00.032.188l1.326.97a.138.138 0 00.191-.026l.946-1.241a.135.135 0 00-.024-.188l-1.326-1.061a.135.135 0 00-.209.032z" fill="#464a5f"/><path data-name="Path 608" d="M242.222 70.89l-.936 1.326a.135.135 0 00.032.188l1.326.97a.138.138 0 00.191-.027l.947-1.241a.135.135 0 00-.024-.188l-1.327-1.056a.138.138 0 00-.209.032z" fill="#464a5f"/><path data-name="Path 609" d="M244.222 72.327l-.934 1.323a.138.138 0 00.029.188l1.326.97a.133.133 0 00.188-.027l.946-1.238a.138.138 0 00-.024-.191l-1.326-1.047a.138.138 0 00-.207.019z" fill="#464a5f"/><path data-name="Path 610" d="M246.224 73.766l-.933 1.326a.132.132 0 00.029.188l1.326.97a.138.138 0 00.191-.027l.947-1.241a.135.135 0 00-.024-.188l-1.326-1.061a.138.138 0 00-.209.032z" fill="#464a5f"/><path data-name="Path 611" d="M248.225 75.201l-.936 1.326a.135.135 0 00.032.188l1.326.97a.135.135 0 00.188-.027l.947-1.238a.135.135 0 00-.024-.191l-1.326-1.047a.135.135 0 00-.207.019z" fill="#464a5f"/><path data-name="Path 612" d="M224.49 61.233l-.75 1.061a.292.292 0 00.064.4l1.061.8a.294.294 0 00.406-.058l.761-1a.292.292 0 00-.05-.406l-1.082-.854a.294.294 0 00-.41.057z" fill="#464a5f"/><path data-name="Path 613" d="M221.499 65.391l-.753 1.061a.294.294 0 00.066.4l1.061.8a.289.289 0 00.4-.056l.764-1a.289.289 0 00-.053-.4l-1.079-.854a.292.292 0 00-.406.049z" fill="#464a5f"/><path data-name="Path 614" d="M226.452 62.644l-.75 1.061a.292.292 0 00.064.4l1.061.8a.294.294 0 00.406-.058l.761-1a.292.292 0 00-.05-.406l-1.082-.854a.294.294 0 00-.41.057z" fill="#464a5f"/><path data-name="Path 615" d="M228.513 64.124l-.75 1.061a.292.292 0 00.064.4l1.061.8a.292.292 0 00.406-.058l.761-1a.294.294 0 00-.05-.406l-1.071-.856a.292.292 0 00-.419.058z" fill="#464a5f"/><path data-name="Path 616" d="M230.596 65.622l-.75 1.061a.292.292 0 00.064.4l1.061.8a.292.292 0 00.406-.058l.761-1a.294.294 0 00-.05-.406l-1.082-.851a.292.292 0 00-.41.054z" fill="#464a5f"/><path data-name="Path 617" d="M223.51 66.738l-.75 1.061a.292.292 0 00.064.4l1.061.8a.292.292 0 00.406-.058l.761-1a.292.292 0 00-.053-.406l-1.079-.851a.292.292 0 00-.41.054z" fill="#464a5f"/><path data-name="Path 618" d="M225.569 68.22l-.75 1.061a.289.289 0 00.064.4l1.061.8a.292.292 0 00.4-.058l.764-1a.292.292 0 00-.053-.406l-1.079-.854a.292.292 0 00-.408.058z" fill="#464a5f"/><path data-name="Path 619" d="M227.653 69.717l-.753 1.061a.292.292 0 00.066.4l1.061.8a.292.292 0 00.4-.058l.764-1a.292.292 0 00-.053-.406l-1.066-.856a.292.292 0 00-.422.061z" fill="#464a5f"/><path data-name="Path 620" d="M232.68 67.12l-.75 1.061a.292.292 0 00.064.4l1.061.8a.292.292 0 00.406-.058l.761-1a.292.292 0 00-.053-.406l-1.055-.856a.292.292 0 00-.432.058z" fill="#464a5f"/><path data-name="Path 621" d="M234.764 68.617l-.75 1.061a.292.292 0 00.064.4l1.061.8a.289.289 0 00.4-.058l.764-1a.292.292 0 00-.053-.406l-1.079-.851a.292.292 0 00-.407.054z" fill="#464a5f"/><path data-name="Path 622" d="M236.944 69.983l-.936 1.326a.135.135 0 00.032.188l1.326.97a.138.138 0 00.191-.027l.947-1.241a.133.133 0 00-.027-.188l-1.326-1.047a.133.133 0 00-.207.019z" fill="#464a5f"/><path data-name="Path 623" d="M238.786 71.314l-.933 1.326a.138.138 0 00.029.188l1.326.97a.135.135 0 00.188-.027l.947-1.238a.138.138 0 00-.024-.191l-1.326-1.047a.135.135 0 00-.207.019z" fill="#464a5f"/><path data-name="Path 624" d="M240.849 72.793l-.933 1.326a.138.138 0 00.029.188l1.326.97a.135.135 0 00.188-.027l.947-1.238a.138.138 0 00-.024-.191l-1.326-1.047a.135.135 0 00-.207.019z" fill="#464a5f"/><path data-name="Path 625" d="M242.853 74.233l-.933 1.326a.135.135 0 00.029.188l1.326.973a.138.138 0 00.188-.027l.947-1.241a.138.138 0 00-.024-.191l-1.326-1.047a.138.138 0 00-.207.019z" fill="#464a5f"/><path data-name="Path 626" d="M227.089 66.104l-.75 1.061a.292.292 0 00.064.4l1.061.8a.292.292 0 00.406-.058l.761-1a.292.292 0 00-.05-.406l-1.082-.851a.292.292 0 00-.41.054z" fill="#464a5f"/><path data-name="Path 627" d="M229.172 67.602l-.75 1.061a.292.292 0 00.064.4l1.061.8a.292.292 0 00.406-.058l.761-1a.292.292 0 00-.05-.406l-1.082-.851a.292.292 0 00-.41.054z" fill="#464a5f"/><path data-name="Path 628" d="M231.256 69.103l-.75 1.061a.292.292 0 00.064.4l1.061.8a.294.294 0 00.406-.058l.761-1a.292.292 0 00-.05-.406l-1.082-.854a.294.294 0 00-.408.056z" fill="#464a5f"/><path data-name="Path 629" d="M233.341 70.598l-.75 1.061a.292.292 0 00.064.4l1.061.8a.294.294 0 00.406-.058l.761-1a.292.292 0 00-.05-.406l-1.082-.854a.294.294 0 00-.41.057z" fill="#464a5f"/><path data-name="Path 630" d="M235.52 71.963l-.936 1.326a.135.135 0 00.032.188l1.326.97a.138.138 0 00.191-.027l.947-1.241a.135.135 0 00-.024-.188l-1.326-1.061a.138.138 0 00-.209.032z" fill="#464a5f"/><path data-name="Path 631" d="M237.355 73.289l-.933 1.326a.135.135 0 00.032.188l1.326.97a.135.135 0 00.188-.027l.947-1.241a.135.135 0 00-.024-.188l-1.326-1.061a.138.138 0 00-.209.032z" fill="#464a5f"/><path data-name="Path 632" d="M239.43 74.774l-.936 1.326a.135.135 0 00.032.188l1.326.97a.135.135 0 00.188-.026l.947-1.241a.133.133 0 00-.024-.188l-1.326-1.061a.135.135 0 00-.207.032z" fill="#464a5f"/><path data-name="Path 633" d="M241.429 76.214l-.933 1.326a.138.138 0 00.029.188l1.326.973a.135.135 0 00.188-.029l.947-1.238a.138.138 0 00-.024-.191l-1.326-1.061a.138.138 0 00-.207.032z" fill="#464a5f"/><path data-name="Path 634" d="M244.855 75.67l-.936 1.326a.135.135 0 00.032.188l1.326.97a.138.138 0 00.191-.027l.947-1.238a.138.138 0 00-.024-.191l-1.326-1.047a.133.133 0 00-.209.019z" fill="#464a5f"/><path data-name="Path 635" d="M246.854 77.11l-.933 1.326a.138.138 0 00.029.188l1.326.973a.135.135 0 00.188-.029l.947-1.238a.138.138 0 00-.024-.191l-1.326-1.061a.138.138 0 00-.207.032z" fill="#464a5f"/><path data-name="Path 636" d="M237.885 76.927l-.88 1.241a.18.18 0 00.04.252l1.244.917a.185.185 0 00.265-.037l.891-1.167a.183.183 0 00-.032-.265l-1.254-.989a.186.186 0 00-.273.048z" fill="#464a5f"/><path data-name="Path 637" d="M239.881 78.366l-.878 1.238a.186.186 0 00.04.265l1.244.917a.18.18 0 00.265-.037l.893-1.167a.183.183 0 00-.034-.265l-1.254-.989a.183.183 0 00-.276.037z" fill="#464a5f"/><path data-name="Path 638" d="M241.883 79.804l-.88 1.241a.183.183 0 00.042.252l1.241.917a.183.183 0 00.265-.037l.891-1.167a.18.18 0 00-.032-.265l-1.254-.989a.186.186 0 00-.273.048z" fill="#464a5f"/><path data-name="Path 639" d="M243.912 81.203l-.933 1.326a.138.138 0 00.029.188l1.326.973a.135.135 0 00.188-.029l.947-1.238a.138.138 0 00-.024-.191l-1.326-1.061a.138.138 0 00-.207.032z" fill="#464a5f"/><path data-name="Path 640" d="M222.992 63.201l-.8 1.137a.292.292 0 00.069.406l3.115 2.217a.292.292 0 00.4-.061l.848-1.106a.289.289 0 00-.064-.414l-3.163-2.248a.292.292 0 00-.411.069z" fill="#464a5f"/><path data-name="Path 641" d="M243.392 77.672l-.978 1.392a.135.135 0 00.032.188l3.365 2.386a.135.135 0 00.186-.029l1.037-1.352a.135.135 0 00-.029-.194l-3.42-2.431a.135.135 0 00-.191.04z" fill="#464a5f"/><path data-name="Path 642" d="M229.774 71.096l-.941 1.294a.141.141 0 00.029.191l7.291 5.377a.135.135 0 00.188-.029l1.029-1.35a.135.135 0 00-.029-.194l-7.376-5.319a.135.135 0 00-.191.029z" fill="#464a5f"/><path data-name="Path 643" d="M225.5 72.591l-4.126 5.708a.74.74 0 00.159 1.029l10.648 7.872a.742.742 0 001.039-.159l4.258-5.833a.74.74 0 00-.164-1.039l-10.78-7.755a.742.742 0 00-1.034.178z" opacity=".1"/><path data-name="Path 644" d="M225.468 72.396l-4.128 5.706a.745.745 0 00.162 1.031l10.648 7.872a.742.742 0 001.039-.159l4.258-5.833a.742.742 0 00-.167-1.039l-10.778-7.755a.742.742 0 00-1.034.177z" fill="#939498"/><path data-name="Path 645" d="M226.001 45.926l.178 8.927 26.892 19.273-.239-8.842a1.548 1.548 0 00-.631-1.214l-25.718-18.4a.308.308 0 00-.483.257z" fill="#044aaf"/><rect data-name="Rectangle 405" width="16.184" height="24.064" rx="2.484" transform="matrix(.812 -.583 .583 .812 0 93.993)" fill="#3a3768"/><rect data-name="Rectangle 406" width="13.421" height="4.73" rx=".154" transform="rotate(-35.68 148.567 43.68)" opacity=".1"/><rect data-name="Rectangle 407" width="13.22" height="4.576" rx="2.288" transform="rotate(-35.68 148.665 43.5)" fill="#e6e8ec"/><rect data-name="Rectangle 408" width="2.67" height="2.967" rx="1.187" transform="rotate(-35.68 158.749 39.6)" opacity=".1"/><rect data-name="Rectangle 409" width="2.66" height="2.956" rx="1.182" transform="rotate(-35.605 156.999 35.122)" opacity=".1"/><rect data-name="Rectangle 410" width="2.67" height="2.967" rx="1.187" transform="rotate(-35.68 155.484 29.459)" opacity=".1"/><rect data-name="Rectangle 411" width="2.67" height="2.967" rx="1.335" transform="rotate(-35.68 153.953 24.355)" opacity=".1"/><rect data-name="Rectangle 412" width="2.67" height="2.967" rx="1.187" transform="rotate(-35.68 163.821 37.972)" opacity=".1"/><rect data-name="Rectangle 413" width="2.67" height="2.967" rx="1.187" transform="rotate(-35.68 162.187 32.897)" opacity=".1"/><rect data-name="Rectangle 414" width="2.67" height="2.967" rx="1.187" transform="rotate(-35.68 160.554 27.83)" opacity=".1"/><rect data-name="Rectangle 415" width="2.67" height="2.967" rx="1.187" transform="rotate(-35.68 169.416 36.165)" opacity=".1"/><rect data-name="Rectangle 416" width="2.67" height="2.967" rx="1.187" transform="rotate(-35.68 167.783 31.098)" opacity=".1"/><rect data-name="Rectangle 417" width="2.67" height="2.967" rx="1.187" transform="rotate(-35.68 166.155 26.025)" opacity=".1"/><rect data-name="Rectangle 418" width="2.67" height="2.967" rx="1.187" transform="rotate(-35.68 171.751 24.225)" opacity=".1"/><rect data-name="Rectangle 419" width="2.67" height="2.967" rx=".777" transform="rotate(-35.68 159.02 22.725)" opacity=".1"/><rect data-name="Rectangle 420" width="5.931" height="2.967" rx="1.483" transform="rotate(-35.68 175.012 34.367)" opacity=".1"/><rect data-name="Rectangle 421" width="2.924" height="6.567" rx="1.462" transform="rotate(-35.68 164.646 21.354)" opacity=".1"/><path data-name="Rectangle 422" fill="#044aaf" d="M14.041 91.221l.95-.682.073.104-.949.681z"/><path data-name="Rectangle 423" fill="#044aaf" d="M12.651 92.218l.95-.682.073.104-.949.681z"/><path data-name="Rectangle 424" fill="#044aaf" d="M11.261 93.215l.95-.682.073.104-.949.681z"/><path data-name="Rectangle 425" fill="#044aaf" d="M9.872 94.214l.95-.682.073.104-.949.681z"/><g data-name="Group 99" opacity=".1"><path data-name="Path 646" d="M167.884 17.998H151.33a.867.867 0 00-.864.864v10.47a.87.87 0 00.864.867h12.992s.337 1.784-.769 1.978c0 0 2.476.178 2.044-1.978h2.287a.87.87 0 00.867-.867V18.863a.87.87 0 00-.867-.865z"/><g data-name="Group 98" transform="translate(152.905 20.774)" opacity=".2"><rect data-name="Rectangle 426" width="13.411" height=".817" rx=".408"/><rect data-name="Rectangle 427" width="13.411" height=".817" rx=".408" transform="translate(0 3.654)"/><rect data-name="Rectangle 428" width="11.247" height=".817" rx=".408" transform="translate(0 5.48)"/><rect data-name="Rectangle 429" width="5.814" height=".817" rx=".408" transform="translate(0 1.827)"/></g></g><path data-name="Path 647" d="M168.032 17.931h-16.555a.867.867 0 00-.867.864v10.46a.867.867 0 00.867.872h12.99s.337 1.787-.769 1.978c0 0 2.474.178 2.042-1.978h2.3a.867.867 0 00.864-.864V18.786a.867.867 0 00-.87-.859z" fill="#f9fafb"/><g data-name="Group 100" transform="translate(153.049 20.702)" opacity=".2" fill="#044aaf"><rect data-name="Rectangle 430" width="13.411" height=".817" rx=".408"/><rect data-name="Rectangle 431" width="13.411" height=".817" rx=".408" transform="translate(0 3.654)"/><rect data-name="Rectangle 432" width="11.247" height=".817" rx=".408" transform="translate(0 5.478)"/><rect data-name="Rectangle 433" width="5.814" height=".817" rx=".408" transform="translate(0 1.827)"/></g><g data-name="Group 102" opacity=".1"><path data-name="Path 648" d="M183.871.167h-19.912a1.042 1.042 0 00-1.039 1.061v12.567a1.042 1.042 0 001.039 1.042h15.622s.4 2.148-.925 2.386c0 0 2.977.212 2.455-2.386h2.76a1.045 1.045 0 001.042-1.042V1.224a1.042 1.042 0 00-1.042-1.061z"/><g data-name="Group 101" transform="translate(165.853 3.513)" opacity=".2"><rect data-name="Rectangle 434" width="16.131" height=".984" rx=".492"/><rect data-name="Rectangle 435" width="13.31" height=".984" rx=".492" transform="translate(0 4.393)"/><rect data-name="Rectangle 436" width="9.582" height=".984" rx=".492" transform="translate(0 2.198)"/></g></g><path data-name="Path 649" d="M184.131 0h-19.912a1.042 1.042 0 00-1.039 1.042v12.581a1.042 1.042 0 001.039 1.039h15.622s.4 2.148-.925 2.386c0 0 2.977.215 2.458-2.386h2.757a1.045 1.045 0 001.042-1.039V1.042A1.045 1.045 0 00184.131 0z" fill="#f9fafb"/><g data-name="Group 103" transform="translate(166.112 3.341)" opacity=".2" fill="#044aaf"><rect data-name="Rectangle 437" width="16.131" height=".984" rx=".492"/><rect data-name="Rectangle 438" width="13.31" height=".984" rx=".492" transform="translate(0 4.393)"/><rect data-name="Rectangle 439" width="9.582" height=".984" rx=".492" transform="translate(0 2.195)"/></g><path data-name="Path 650" d="M53.821 136.861l17.984-6.719a1.708 1.708 0 012.2 1 1.71 1.71 0 01-1 2.2l-17.984 6.719-3.855-.387z" fill="#be8b87"/><path data-name="Path 651" d="M73.463 130.614a1.713 1.713 0 01-1 2.2l-17.984 6.719-2.893-.292-.419.443 3.855.387 17.984-6.719a1.71 1.71 0 001-2.2 1.7 1.7 0 00-.7-.856 1.668 1.668 0 01.157.318z" fill="#fff" opacity=".1"/><path data-name="Path 652" d="M53.824 136.858l1.2 3.206-3.163-.318-.692-.069.944-1z" fill="#efc8c4"/><path data-name="Path 653" d="M52.111 138.678a.694.694 0 01.183.2.289.289 0 010 .313.735.735 0 01-.172.125.578.578 0 00-.265.432l-.692-.069z" fill="#727a9c"/><g data-name="Group 104"><path data-name="Rectangle 440" transform="rotate(-14.452 569.686 -581.961)" fill="url(#a)" d="M0 0h5.912v19.335H0z" opacity=".5"/></g><path data-name="Rectangle 441" fill="#f9fafb" d="M163.483 123.84l5.442-1.403 4.76 18.47-5.442 1.403z"/><path data-name="Rectangle 442" fill="#f7b643" d="M164.358 123.925l3.847-.992.992 3.848-3.847.991z"/><path data-name="Rectangle 443" fill="#f7b643" opacity=".5" d="M165.407 127.812l3.84-1 .999 3.84-3.84 1z"/><path data-name="Rectangle 444" fill="#f7b643" opacity=".3" d="M166.614 132.446l3.84-1 .999 3.84-3.84 1z"/><g data-name="Group 105"><path data-name="Rectangle 445" transform="rotate(-32.95 294.46 -203.56)" fill="url(#c)" d="M0 0h5.902v19.23H0z" opacity=".5"/></g><path data-name="Rectangle 446" fill="#f9fafb" d="M158.313 127.418l4.708-3.051 10.318 15.92-4.708 3.05z"/><path data-name="Rectangle 447" fill="#f97878" d="M159.173 127.226l3.328-2.157 2.157 3.328-3.328 2.157z"/><path data-name="Rectangle 448" fill="#f97878" opacity=".5" d="M161.779 131.242l3.328-2.157 2.157 3.328-3.328 2.157z"/><path data-name="Rectangle 449" fill="#f97878" opacity=".3" d="M164.385 135.262l3.328-2.157 2.157 3.328-3.328 2.157z"/><g data-name="Group 106"><path data-name="Rectangle 450" transform="rotate(-44.68 236.754 -124.306)" fill="url(#d)" d="M0 0h5.902v19.23H0z" opacity=".5"/></g><path data-name="Rectangle 451" fill="#f9fafb" d="M156.038 130.469l3.989-3.944 13.336 13.488-3.99 3.944z"/><path data-name="Rectangle 452" fill="#73b53b" d="M156.841 130.11l2.82-2.788 2.788 2.82-2.82 2.788z"/><path data-name="Rectangle 453" fill="#73b53b" opacity=".5" d="M160.205 133.516l2.82-2.788 2.788 2.82-2.82 2.788z"/><path data-name="Rectangle 454" fill="#73b53b" opacity=".3" d="M163.567 136.922l2.82-2.788 2.788 2.82-2.82 2.788z"/><g data-name="Group 107"><path data-name="Rectangle 455" transform="rotate(-51.85 214.138 -92.697)" fill="url(#e)" d="M0 0h5.902v19.23H0z" opacity=".5"/></g><path data-name="Rectangle 456" fill="#fff" d="M154.976 132.887l3.465-4.412 14.92 11.72-3.466 4.41z"/><path data-name="Rectangle 457" fill="#044aaf" d="M155.726 132.43l2.45-3.119 3.119 2.45-2.45 3.119z"/><path data-name="Rectangle 458" fill="#044aaf" opacity=".5" d="M159.49 135.388l2.45-3.119 3.119 2.45-2.45 3.119z"/><path data-name="Rectangle 459" fill="#044aaf" opacity=".3" d="M163.259 138.344l2.45-3.119 3.119 2.45-2.45 3.119z"/><path data-name="Path 654" d="M218.872 148.808a4.094 4.094 0 102 5.438 4.094 4.094 0 00-2-5.438zm-2.787 6.019a2.535 2.535 0 111.94.08 2.537 2.537 0 01-1.94-.08z" fill="#f0cbc6"/><path data-name="Path 655" d="M213.807 138.304l-7.617 5.358a3.73 3.73 0 00-1.609 3.052c0 1.925.878 4.815 5.077 7.424a3.8 3.8 0 004.112-.066l7.424-4.966z" fill="#f0cbc6"/><path data-name="Path 656" d="M222.226 148.713c-1.222 1.016-4.12-.472-6.477-3.32s-3.28-5.974-2.057-6.986 4.126.475 6.483 3.32c.148.183.3.366.432.549l.154.209a10.922 10.922 0 011.888 3.826c.026.127.053.252.069.374a2.114 2.114 0 01-.492 2.028z" fill="#f0cbc6"/><ellipse data-name="Ellipse 70" cx="2.323" cy="5.411" rx="2.323" ry="5.411" transform="rotate(-39.65 301.77 -224.627)" fill="#f9fafb"/><path data-name="Path 657" d="M221.655 147.427c-.019.034-.04.066-.058.1a1.058 1.058 0 01-.188.2c-.6.5-1.71.249-2.916-.53l-.125-.085a9.858 9.858 0 01-1.124-.907 12.156 12.156 0 01-1.076-1.148 9.723 9.723 0 01-.634-.833 10.379 10.379 0 01-.756-1.257.424.424 0 01-.027-.048c-.8-1.562-.931-2.948-.247-3.513.989-.819 3.335.384 5.242 2.686a9.326 9.326 0 01.631.835c.042.056.082.114.119.172 1.178 1.743 1.645 3.464 1.159 4.328z" opacity=".1"/><path data-name="Path 658" d="M222.648 146.311a1.7 1.7 0 01-.87.817l-.122.042a1.353 1.353 0 01-.265.053 2.208 2.208 0 01-.931-.109c-1.251-.4-1.829-.387-2.092-.265a9.862 9.862 0 01-1.124-.907 12.164 12.164 0 01-1.076-1.148 9.711 9.711 0 01-.634-.833 10.381 10.381 0 01-.756-1.257c1.265.5 3.731 1.395 4.56 1.016a2.593 2.593 0 00.954-.923l.082-.127.034-.056c.066-.109.133-.215.191-.326a10.96 10.96 0 012.049 4.023z" opacity=".1"/><path data-name="Path 659" d="M222.717 146.684a1.713 1.713 0 01-1.061 1 1.328 1.328 0 01-.265.053 2.209 2.209 0 01-.931-.109 5.306 5.306 0 00-1.792-.337.876.876 0 00-.3.064 9.864 9.864 0 01-1.124-.907 12.167 12.167 0 01-1.076-1.148 9.711 9.711 0 01-.634-.833 10.181 10.181 0 01-.756-1.257c.056.024.111.048.175.069 1.307.514 3.593 1.307 4.385.949a2.606 2.606 0 00.957-.931l.082-.127.034-.056a.831.831 0 00.05-.082 6.09 6.09 0 00.294-.549 10.921 10.921 0 011.888 3.826c.031.129.058.253.074.375z" opacity=".1"/><path data-name="Path 660" d="M225.744 138.391a3.757 3.757 0 01-.981.562 3.182 3.182 0 00-1.888 3.616l.016.066c.432 1.822.244 4.367-1.236 4.791a1.356 1.356 0 01-.265.053 2.208 2.208 0 01-.931-.109c-1.251-.4-1.829-.387-2.092-.265a9.858 9.858 0 01-1.124-.907 12.16 12.16 0 01-1.076-1.148 9.723 9.723 0 01-.634-.833 10.386 10.386 0 01-.756-1.257c1.265.5 3.731 1.395 4.56 1.018a2.607 2.607 0 00.957-.931l.082-.127.034-.056a6.414 6.414 0 00.946-2.972c.1-1.432.732-3.919 4.02-3.139a.931.931 0 01.366 1.636z" fill="#59393c"/><path data-name="Path 661" d="M187.429 207.583s-11.21-.676-9.887 7.18a1.911 1.911 0 00.994 2.018s.021-.583 1.151-.384a5.137 5.137 0 001.217.058 2.519 2.519 0 001.49-.615s3.15-1.3 4.377-6.451c0 0 .9-1.124.87-1.413l-1.893.809a3.388 3.388 0 01.138 2.5s-.061-2.447-.424-2.386c-.074 0-.984.475-.984.475s1.114 2.386.265 4.1c0 0 .321-2.917-.62-3.932l-1.326.777s1.3 2.455.419 4.457c0 0 .225-3.07-.7-4.269l-1.206.941s1.22 2.421.475 4.08c0 0-.1-3.577-.737-3.847a6.939 6.939 0 00-1.217 1.326s.838 1.755.318 2.683c0 0-.318-2.386-.581-2.386a7.835 7.835 0 00-1.159 2.651 5.747 5.747 0 01.9-2.813 3.152 3.152 0 00-1.609.833s.164-1.116 1.869-1.212a7.362 7.362 0 011.1-1.273 6.925 6.925 0 00-2.726.315s.9-1.061 3.036-.575l1.19-.973a9.806 9.806 0 00-3.182.034s1.092-.933 3.5-.265l1.3-.774a11.832 11.832 0 00-3.041-.265 4.657 4.657 0 013.42.053l.928-.416s-1.4-.265-1.806-.318-.43-.156-.43-.156a4.842 4.842 0 012.622.292 11.714 11.714 0 001.949-.859z" fill="#044aaf"/><ellipse data-name="Ellipse 71" cx="7.933" cy="1.342" rx="7.933" ry="1.342" transform="translate(171.775 216.124)" fill="#044aaf" opacity=".1"/><path data-name="Path 662" d="M208.931 186.887s-6.318-.382-5.568 4.046a1.079 1.079 0 00.562 1.137s0-.326.647-.215a2.95 2.95 0 00.687.032 1.434 1.434 0 00.84-.347s1.776-.732 2.466-3.638c0 0 .512-.631.49-.8l-1.061.456a1.914 1.914 0 01.077 1.408s-.034-1.381-.239-1.347c-.042 0-.554.265-.554.265a3.147 3.147 0 01.154 2.315s.18-1.652-.35-2.217l-.75.427a3.319 3.319 0 01.236 2.513 4.73 4.73 0 00-.392-2.407l-.681.53a3.217 3.217 0 01.265 2.3s-.053-2.015-.416-2.169a4.1 4.1 0 00-.684.742s.469.989.178 1.511c0 0-.178-1.344-.326-1.35a4.454 4.454 0 00-.655 1.5 3.245 3.245 0 01.512-1.591 1.8 1.8 0 00-.909.469s.093-.628 1.061-.684a4.126 4.126 0 01.62-.716 3.892 3.892 0 00-1.535.178 1.72 1.72 0 011.71-.323l.673-.549a5.54 5.54 0 00-1.795.019 2.165 2.165 0 011.975-.143l.732-.437a6.685 6.685 0 00-1.715-.148 2.636 2.636 0 011.93.032l.53-.236s-.8-.154-1.018-.178-.241-.09-.241-.09a2.726 2.726 0 011.477.164 6.322 6.322 0 001.067-.459z" fill="#044aaf"/><ellipse data-name="Ellipse 72" cx="4.473" cy=".756" rx="4.473" ry=".756" transform="translate(200.108 191.702)" fill="#044aaf" opacity=".1"/><path data-name="Path 663" d="M171.629 190.729s-7.628-.461-6.729 4.886a1.3 1.3 0 00.679 1.373s.013-.4.8-.265a3.606 3.606 0 00.827.04 1.753 1.753 0 001.016-.419s2.145-.886 2.977-4.393c0 0 .618-.764.594-.96l-1.289.549a2.309 2.309 0 01.093 1.7s-.04-1.668-.289-1.628c-.05 0-.668.321-.668.321a3.8 3.8 0 01.186 2.795s.217-1.994-.422-2.678l-.907.53a3.994 3.994 0 01.284 3.036s.154-2.092-.475-2.917l-.822.639a3.913 3.913 0 01.326 2.779s-.066-2.434-.5-2.62a4.937 4.937 0 00-.827.9s.57 1.193.215 1.827c0 0-.215-1.623-.392-1.631a5.322 5.322 0 00-.8 1.811 3.9 3.9 0 01.615-1.914 2.155 2.155 0 00-1.095.567s.111-.761 1.273-.827a4.987 4.987 0 01.75-.864 4.722 4.722 0 00-1.856.215 2.081 2.081 0 012.068-.392l.811-.66a6.668 6.668 0 00-2.166.021 2.64 2.64 0 012.386-.172l.883-.53a8.708 8.708 0 00-2.071-.178 3.17 3.17 0 012.328.037l.634-.284s-.952-.188-1.23-.217-.292-.106-.292-.106a3.3 3.3 0 011.784.2 7.741 7.741 0 001.301-.571z" fill="#044aaf"/><ellipse data-name="Ellipse 73" cx="5.401" cy=".912" rx="5.401" ry=".912" transform="translate(160.976 196.543)" fill="#044aaf" opacity=".1"/><path data-name="Path 664" d="M438.452 149.763s.414-1.238-.164-1.88l-1.2-1.326-6.1-8.845s-1.485-1.761-1.238-2.8-1.4-2.161-1.4-2.161.9-1.111.371-1.774a7.319 7.319 0 01-1.363-2.042c0-.361-3.168-5.038-7.3-6.178l.127-.093a6.539 6.539 0 00-.724-.119 20.487 20.487 0 01-6.97-1.591l-.138.146-.355-.146c-.724-.308-1.538-.684-2.5-1.159s-2-1-3.267-1.66a8.707 8.707 0 01-1.591-2.94 5.39 5.39 0 01-.122-.411 9.073 9.073 0 004.619-7.856 8.869 8.869 0 00-1.214-4.489c-.05-.087-.109-.17-.162-.265.019-.021.037-.04.053-.061a2.1 2.1 0 00.148-.228 3.638 3.638 0 00.22-.5 4.31 4.31 0 00.09-.265 143 143 0 01.361-1.042l.358-1.042a6.92 6.92 0 00.437-1.957 2.534 2.534 0 00-.1-.838 2.147 2.147 0 00-.164-.387 1.967 1.967 0 00-.117-.186c-.6-.854-1.9-1.212-2.179-2.211a1.858 1.858 0 01-.056-.485v-.74a1.44 1.44 0 00-.021-.215 1.7 1.7 0 00-.056-.236.061.061 0 00-.019-.053 1.894 1.894 0 00-.09-.212 1.749 1.749 0 00-.13-.212.2.2 0 00-.021-.029 3.479 3.479 0 00-1.827-1.167 7.2 7.2 0 00-4.937.318 1.609 1.609 0 01-.695.207c-.392 0-.695-.323-1.034-.514-1.092-.618-2.46.037-3.51.721a5.382 5.382 0 00-1.4 1.172c-.345.456-.53 1-.856 1.474-1.008 1.5-3.017 1.981-4.473 3.078a7.275 7.275 0 00-2.67 5.022 13.918 13.918 0 00.758 5.719 6.381 6.381 0 00.22.607 19.549 19.549 0 00.984 6.363c.249.92-2.97 3.842-2.97 3.842l-9.908 8.577s-.04-.247-1.31-.156-3.651 2.972-3.651 2.972l.191.016c-.122.141-.191.225-.191.225l.517.042c-1.538 1.326-3.351 2.917-4.293 3.847-.265.249-.477.464-.631.631-1.326 1.44-.453 5.4-.453 5.4s-.207 2.439 3.632 2.76c0 0 4.457.88 6.644 0a26.079 26.079 0 016.342-1.1s-1.7 5.7-1.591 7.384-1.135 7.655-1.135 7.655l-3.8 19.957s-3.553 6.936 7.159 7.954v.323s.265.04.681.085c-.019.228-.037.467-.056.713a39.754 39.754 0 00-.215 4.083 1.883 1.883 0 00.663.761l.414 3.521a25.776 25.776 0 00.8 3.919c.384.886 1.326 3.245 1.156 4.006a11.817 11.817 0 00.618 3.28s.371 2.442.5 3.041 0 6.562 0 6.562a11.362 11.362 0 002.437.875 413.775 413.775 0 001.31 5.245c.493 1.92 1.567 5.282 1.567 5.282s.122 4.364.864 5.2.578 9.084 3.712 14.124c2.251 3.619 5.011 10.47 6.39 14.052a118.98 118.98 0 01-.239 4.892 3.511 3.511 0 00-.859 1.554c-.371 1.8-2.68 4.839-2.68 4.839a16.435 16.435 0 01-3.343 2.243 1.756 1.756 0 00-.5.265c-1.018.724-2.214 2.633.209 3.383a8.93 8.93 0 003.688.05 4.709 4.709 0 000 .75s-1.238 3.041-1.776 4.2c-.2.424-.636 1.034-1.026 1.678-.684 1.129-1.212 2.362 0 2.885.371.159 6.769-.119 8.914.559s3.672-1.562 3.672-1.562a11.761 11.761 0 01.66-3.24 5.04 5.04 0 00-.141-2.691c-.172-.711-.355-1.267-.355-1.267a38.4 38.4 0 01-.53-5.783l3.158-2.3a2.842 2.842 0 001.108-2.983l-.106-.422a24.378 24.378 0 00-2.073-5.833 5.488 5.488 0 01.53-1.355c.989-1.44 2.808-10.364 3.261-11.727a13.469 13.469 0 00.329-1.437c.57-2.81 1.434-9.651.032-12.817l-.718-7.731s-.411-5.921.042-8.2a38.391 38.391 0 00.472-4.457v-.106l4.277.209v-19.966l.374-7.016.037-.711a4.507 4.507 0 00.578.159c.811-.517 1.015-1.776.978-3.068a12.882 12.882 0 00-.143-2.068 5.019 5.019 0 001.381-2.429l8.954-8.092.037-.072c.2-.406 1.217-2.453 1.607-3.532.358-1 .122-6.363.029-8.145.586.05 1.3.106 1.973.141a7.952 7.952 0 002.267-.066c.745-.321 1.692-2.564 2.434-3.921s-.488-4.4-.488-4.4zM391.618 118.4s.209-1.991.233-4.449l1.326-.44a7.345 7.345 0 00.626.53q.053.265.1.557a13.033 13.033 0 01-.053 4.857 6.536 6.536 0 00-2.243 2.5 1.867 1.867 0 01-1.525 1.09 4.754 4.754 0 01-1.045.082l-1.625.265zm8.824 95.558c-.056-.151-.1-.286-.148-.406l.114-.069v-.92c.011.358.019.838.034 1.384z" transform="translate(-282.76 -71.833)" fill="url(#f)"/><path data-name="Path 665" d="M132.485 53.664s-4.473 5.711-8.055 10.213c-2.309 2.9-4.242 5.3-4.388 5.343a2.277 2.277 0 01-.435-.021c-1.8-.159-8.651-1.114-11.767-1.554l-1.559-.22s.1-2.694.512-5.96c.491-3.919 1.437-8.659 3.2-10.552a5.383 5.383 0 001.132-1.928 12.367 12.367 0 00.281-5.645 21.282 21.282 0 00-.814-3.447s11.366-6.7 10.767-.6a11.608 11.608 0 00.416 4.648 7.933 7.933 0 002.577 3.977l.048.034z" fill="#ffb9b9"/><path data-name="Path 666" d="M121.773 43.952a9.1 9.1 0 01-10.359-.615 21.279 21.279 0 00-.814-3.447s11.366-6.7 10.767-.6a11.607 11.607 0 00.406 4.658z" opacity=".1"/><path data-name="Path 667" d="M126.119 35.716a9.086 9.086 0 11-1.183-4.476 9.086 9.086 0 011.183 4.476z" fill="#ffb9b9"/><path data-name="Path 668" d="M124.936 31.241a1.509 1.509 0 01-.1.162 3.041 3.041 0 01-2.768.862 3.522 3.522 0 01-3.017-1.607c-.469-1-.339-2.065-1.631-2.214-1.119-.13-2.62-.912-3.712-.464a2.64 2.64 0 00-1.286 2.336 7.117 7.117 0 01-.435 2.752c-.411.782-1.212 1.3-1.628 2.081a4.955 4.955 0 00-.247 2.932 5.281 5.281 0 01-.186 2.94 1.924 1.924 0 01-.127.228 9.094 9.094 0 1115.139-10.009z" opacity=".1"/><path data-name="Path 669" d="M119.056 30.18a3.507 3.507 0 003.017 1.6 3.027 3.027 0 002.768-.862 3.476 3.476 0 00.443-.978l.695-2.079c.366-1.1.711-2.386.056-3.354-.586-.851-1.84-1.206-2.108-2.206a11.71 11.71 0 01-.066-1.434 2.731 2.731 0 00-2.073-1.906 6.74 6.74 0 00-4.772.318 1.543 1.543 0 01-.671.2c-.379 0-.671-.321-1-.512-1.061-.615-2.386.037-3.391.719a5.21 5.21 0 00-1.352 1.169c-.331.453-.53 1-.827 1.469-.976 1.493-2.917 1.973-4.322 3.068a7.288 7.288 0 00-2.58 5 14.361 14.361 0 00.729 5.7 4.062 4.062 0 00.437 1.037c.573.87 1.713 1.241 2.27 2.121.448.708.49 1.7 1.172 2.19a1.782 1.782 0 002.458-.909 5.322 5.322 0 00.186-2.943 4.957 4.957 0 01.247-2.932c.414-.78 1.22-1.3 1.628-2.081a7.118 7.118 0 00.435-2.752 2.627 2.627 0 011.289-2.333c1.084-.451 2.585.334 3.712.461 1.28.164 1.15 1.23 1.62 2.229z" fill="#b96b6b"/><g data-name="Group 108" opacity=".1"><path data-name="Path 670" d="M105.831 38.066c-.559-.88-1.7-1.251-2.272-2.121a.154.154 0 010-.021 4.2 4.2 0 00.053.183 4.059 4.059 0 00.438 1.037c.573.87 1.713 1.241 2.27 2.121.032.05.064.1.093.159a9.283 9.283 0 00-.582-1.358z"/><path data-name="Path 671" d="M123.449 21.113a1.639 1.639 0 00.422.713 6.328 6.328 0 000-.952 1.84 1.84 0 00-.456-.936 4.957 4.957 0 00.034 1.175z"/><path data-name="Path 672" d="M116.949 26.768c-1.119-.127-2.622-.912-3.712-.461a2.624 2.624 0 00-1.286 2.333 7.021 7.021 0 01-.437 2.752c-.408.782-1.212 1.3-1.625 2.081a4.934 4.934 0 00-.247 2.932 5.316 5.316 0 01-.186 2.943 1.791 1.791 0 01-2.46.909 1.644 1.644 0 01-.475-.57c.265.639.4 1.368.954 1.766a1.782 1.782 0 002.458-.909 5.322 5.322 0 00.186-2.943 4.957 4.957 0 01.247-2.932c.414-.78 1.22-1.3 1.628-2.081a7.118 7.118 0 00.435-2.752 2.627 2.627 0 011.289-2.333c1.084-.451 2.585.334 3.712.461a1.27 1.27 0 01.949.493c-.27-.82-.368-1.565-1.43-1.689z"/><path data-name="Path 673" d="M126.034 24.511a2.556 2.556 0 00-.122-.159 5.959 5.959 0 01-.414 2.317l-.692 2.079a3.41 3.41 0 01-.445.978 3.039 3.039 0 01-2.768.862 3.743 3.743 0 01-2.866-1.347 6.974 6.974 0 00.329.939 3.507 3.507 0 003.017 1.6 3.027 3.027 0 002.768-.862 3.476 3.476 0 00.443-.978c.231-.692.464-1.384.695-2.079.37-1.096.71-2.393.055-3.35z"/></g><rect data-name="Rectangle 460" width="5.992" height="12.66" rx="2.996" transform="rotate(-18.77 146.687 -296.388)" fill="#464a5f"/><rect data-name="Rectangle 461" width="5.992" height="12.66" rx="2.996" transform="rotate(-18.77 146.583 -295.74)" fill="#9c9ca1"/><circle data-name="Ellipse 74" cx=".941" cy=".941" r=".941" transform="translate(105.945 33.071)" fill="#939498"/><path data-name="Path 674" d="M106.241 142.604s1.156 4.865 1.636 6.78 1.517 5.266 1.517 5.266.119 4.346.835 5.183.559 9.054 3.59 14.079 7.021 16.314 7.021 16.314l.53 3.829 5.107-5.942-4.242-21.741s-2.471-8.813-1.715-11.565-3.15-13.44-3.15-13.44z" fill="#ffb9b9"/><path data-name="Path 675" d="M126.463 188.109l-5.107 5.944-.53-3.829s-3.977-11.287-7.021-16.314-2.871-13.238-3.59-14.076-.835-5.186-.835-5.186-1.037-3.351-1.517-5.266c-.286-1.143-.814-3.346-1.193-4.926-.265-1.061-.443-1.856-.443-1.856l11.136-1.236s.125.337.321.907c.92 2.638 3.447 10.269 2.829 12.533-.758 2.752 1.718 11.565 1.718 11.565z" opacity=".05"/><path data-name="Path 676" d="M128.171 198.041l-4.46 3.349c-2.156 2.315-8.484 4.229-11.247 3.351-2.344-.748-1.188-2.651-.2-3.372a1.635 1.635 0 01.48-.265 15.959 15.959 0 003.232-2.235s2.232-3.031 2.59-4.826 2.917-3.272 2.917-3.272 3.428-3.349 4.985-2.673c1.016.445 2.065 4.075 2.675 6.538l.1.422a2.877 2.877 0 01-1.072 2.983z" fill="#c7c0d9"/><path data-name="Path 677" d="M128.171 198.041l-4.46 3.349c-2.156 2.315-8.484 4.229-11.247 3.351-2.344-.748-1.188-2.651-.2-3.372.952 1.487 4.428 1.22 4.428 1.22l6.183-2.752 6.265-5.189.1.422a2.877 2.877 0 01-1.069 2.971z" opacity=".1"/><path data-name="Path 678" d="M121.188 189.939s-3.977-11.29-7.018-16.314-2.871-13.241-3.59-14.079-.838-5.183-.838-5.183-1.037-3.351-1.514-5.266c-.289-1.145-.817-3.346-1.2-4.926-.265-1.061-.443-1.856-.443-1.856l10.438-1.161-.029-.077-11.136 1.238s.186.8.443 1.856c.376 1.591.907 3.781 1.193 4.926.477 1.914 1.514 5.266 1.514 5.266s.119 4.346.838 5.183.557 9.054 3.59 14.079 7.018 16.314 7.018 16.314l.53 3.829.62-.721z" opacity=".05"/><path data-name="Rectangle 462" fill="#caa8b1" d="M135.118 71.115h12.443v14.373h-12.443z"/><path data-name="Path 679" d="M148.46 94.734c-.376 1.074-1.358 3.113-1.554 3.516a.926.926 0 01-.034.074l-8.943 8.325-.215.2-.056-.183c-.472-1.591-3.836-12.872-4.242-13.488-.323-.485-.167-2.476-.066-3.479.037-.355.066-.583.066-.583l-.26-7.816 1.326-2.545 12.279 3.887 1.721 3.38s.396 7.513-.022 8.712z" fill="#caa8b1"/><path data-name="Path 680" d="M146.906 98.249a.926.926 0 01-.034.074l-8.943 8.325-.265.016-3.054.183-2.217-17.979s.363.331.968.83c1.76 1.45 5.568 4.327 8.484 4.706a6.945 6.945 0 015.061 3.845z" fill="none"/><path data-name="Path 681" d="M146.906 98.249a.926.926 0 01-.034.074l-8.943 8.325-.265.016-3.054.183-2.217-17.979s.363.331.968.83c1.76 1.45 5.568 4.327 8.484 4.706a6.945 6.945 0 015.061 3.845z" opacity=".1"/><path data-name="Path 682" d="M147.832 93.718a5.718 5.718 0 01-2.651-.912 22.217 22.217 0 00-2.842-1.9l2.9 3.2s2.202.715 2.593-.388z" opacity=".1"/><path data-name="Path 683" d="M140.593 95.752s.178 3.259 2.153 3.29-2.153-3.29-2.153-3.29z" opacity=".1"/><path data-name="Path 684" d="M142.626 95.752s1.5 2.72 2.214 2.362-2.214-2.362-2.214-2.362z" opacity=".1"/><path data-name="Path 685" d="M100.978 69.225l-2.087.772a24.508 24.508 0 00-6.13 1.1c-2.113.878-6.422 0-6.422 0s7.5-9.773 7.617-9.81 7.938-2.917 7.938-2.917z" fill="#cbcdda"/><path data-name="Path 686" d="M100.978 69.225l-2.087.772a24.508 24.508 0 00-6.13 1.1c-2.113.878-6.422 0-6.422 0s7.5-9.773 7.617-9.81 7.938-2.917 7.938-2.917z" opacity=".03"/><path data-name="Path 687" d="M130.809 175.786c-.437 1.357-2.193 10.253-3.15 11.687s-2.073 9.691-2.073 9.691l-.215.151-.464.326s-6.864-.318-6.069-1.554a3.6 3.6 0 00.3-1.156c.53-3.357.578-12.284.578-12.284l.08-14.161s1.8-4.568.557-7.936a17.605 17.605 0 01-1.116-6.22s.2-3.272-.679-4.587c-.711-1.061-.846-6.7-.87-8.776v-.769l1.113-1.665 12.2.838s-.026.984-.1 2.259a38.245 38.245 0 01-.456 4.441c-.437 2.272-.04 8.174-.04 8.174l.679 7.689c1.599 3.724.165 12.499-.275 13.852z" fill="#ffb9b9"/><path data-name="Path 688" d="M117.69 142.28v.09a14.35 14.35 0 01-11.006 2.092c-.265-1.061-.443-1.856-.443-1.856l11.136-1.236s.117.335.313.91z" opacity=".05"/><path data-name="Path 689" d="M135.637 111.376l-.162 3.1-.358 6.992-17.427 2.834v17.589a13.91 13.91 0 01-13.787 1.114s.119-5.942 0-6.541-.48-3.031-.48-3.031a12.222 12.222 0 01-.6-3.269c.162-.756-.761-3.11-1.119-3.977a27.436 27.436 0 01-.756-3.905l-.408-3.524a1.856 1.856 0 01-.639-.761c-.069-.225.074-2.323.207-4.067.1-1.294.194-2.386.194-2.386l16.271-3.07z" fill="#4c4c78"/><path data-name="Path 690" d="M117.159 126.423v13.787a2.015 2.015 0 01-.825-1.824c-.072-1.835-.217-6.18-.477-8.134a7.461 7.461 0 01.992-4.07z" opacity=".05"/><path data-name="Path 691" d="M107.199 120.828a4.537 4.537 0 003.391 2.272c2.595.478-3.391-2.272-3.391-2.272z" opacity=".1"/><path data-name="Path 692" d="M104.687 124.418s5.5.917 6.819.878" opacity=".1"/><path data-name="Path 693" d="M106.361 128.446a14.614 14.614 0 004.881-.758" opacity=".1"/><path data-name="Path 694" d="M105.725 137.817s7.975-3.044 8.932-4.635" opacity=".1"/><path data-name="Path 695" d="M107.599 141.727c.265-.04 7.3-4.269 7.9-5.385" opacity=".1"/><path data-name="Path 696" d="M131.007 139.364s-.026.984-.1 2.259l-13.212-.666v-.769l1.114-1.662z" opacity=".1"/><path data-name="Path 697" d="M120.209 123.578s6.724-1.66 8.14-.591-8.14.591-8.14.591z" opacity=".1"/><path data-name="Path 698" d="M113.501 111.813s1.355 12.684 2.474 13.522 5.862-13.522 5.862-13.522z" opacity=".1"/><path data-name="Path 699" d="M113.74 111.337s1.358 12.684 2.474 13.522 5.862-13.522 5.862-13.522z" fill="#4c4c78"/><path data-name="Path 700" d="M135.637 111.376l-.161 3.095a11.4 11.4 0 01-3.428-1.981 1.469 1.469 0 00-.167-.127 4.749 4.749 0 00-4.3-.2 8.411 8.411 0 00-1.2.53s-17.629.6-17.629.119c0-.353-2.495.186-4.173.65a12.558 12.558 0 00-1.326.427 8.582 8.582 0 01-3.089.045h-.056c.1-1.294.194-2.386.194-2.386l16.274-3.077z" opacity=".1"/><path data-name="Path 701" d="M136.072 113.449a4.531 4.531 0 01-.559-.162 11.277 11.277 0 01-3.468-1.994 2.828 2.828 0 00-.167-.127 4.748 4.748 0 00-4.3-.2 8.063 8.063 0 00-1.2.53s-17.629.6-17.629.119c0-.353-2.495.186-4.173.65a13.39 13.39 0 00-1.326.424 8.638 8.638 0 01-3.089.048c-.392-.048-.66-.087-.66-.087v-.135l.872-22.12 2.511-19.7.92-8.256 2.983-1.453 3-1.461a7.806 7.806 0 001.145 1.273 6.7 6.7 0 008.453.774 12.15 12.15 0 001.251-.848c1.352-1.042 2.622.135 3.789 2.675 4.56 9.895 7.538 40.439 7.538 40.439l4.507 2.917s.154.575.3 1.395c.307 1.699.572 4.465-.698 5.299z" opacity=".1"/><path data-name="Path 702" d="M136.072 113.926a4.16 4.16 0 01-.559-.159 11.4 11.4 0 01-3.468-1.994 1.85 1.85 0 00-.167-.127 4.757 4.757 0 00-4.3-.2 8.22 8.22 0 00-1.2.53s-17.618.612-17.618.122c0-.355-2.495.183-4.173.647a13.227 13.227 0 00-1.326.427 8.582 8.582 0 01-3.089.045 21.77 21.77 0 01-.66-.085v-.138l.872-22.118 2.511-19.7.92-8.256 2.985-1.459 3-1.458a7.734 7.734 0 001.145 1.27 6.7 6.7 0 008.453.777 12.2 12.2 0 001.251-.851c1.352-1.042 2.622.138 3.789 2.675 4.558 9.892 7.535 40.439 7.535 40.439l4.507 2.917s.154.575.3 1.392c.296 1.704.562 4.469-.708 5.304z" fill="#fff"/><path data-name="Path 703" d="M136.777 108.608a10.482 10.482 0 01-4.9 3.028 21.421 21.421 0 01-4.027.949l-.265-1.143c-.65-2.606-2.288-9.015-3.229-11.4a27.24 27.24 0 01-1.519-6.538 34.249 34.249 0 00-1.771-9.412c-.772-2.243-1.206-8.609-1.453-14.9-.1-2.479-.167-4.947-.217-7.145-.1-4.526-.106-7.909-.106-7.909l1.434-2.275a4.666 4.666 0 01.65-2.917 7.506 7.506 0 011.464-1.832c.562.3 1.079.578 1.567.833l8.087 5.708s-4.473 5.711-8.055 10.213c4.558 9.892 7.535 40.439 7.535 40.439l4.507 2.917s.15.588.298 1.384z" opacity=".1"/><path data-name="Path 704" d="M135.597 93.426c-.241 4.624 2.71 12.361 2.71 12.361-.477 5.5-9.969 6.544-9.969 6.544s-2.315-9.492-3.51-12.525a27.374 27.374 0 01-1.517-6.541 34.289 34.289 0 00-1.774-9.41c-1.7-4.947-1.776-29.96-1.776-29.96l1.437-2.272a4.666 4.666 0 01.647-2.917 7.547 7.547 0 011.466-1.832c1.222.655 2.259 1.2 3.158 1.654s1.721.848 2.421 1.156a19.458 19.458 0 006.734 1.578 5.593 5.593 0 01.7.119c4.16.952 7.408 5.91 7.408 6.249a7.368 7.368 0 001.326 2.034c.517.655-.361 1.766-.361 1.766s1.591 1.119 1.357 2.156 1.2 2.792 1.2 2.792l-8.935 6.78s-2.483 15.642-2.722 20.268z" fill="#cbcdda"/><circle data-name="Ellipse 75" cx=".493" cy=".493" r=".493" transform="translate(120.657 57.866)" fill="#767d9f"/><circle data-name="Ellipse 76" cx=".493" cy=".493" r=".493" transform="translate(120.657 64.447)" fill="#767d9f"/><circle data-name="Ellipse 77" cx=".493" cy=".493" r=".493" transform="translate(122.394 80.111)" fill="#767d9f"/><circle data-name="Ellipse 78" cx=".493" cy=".493" r=".493" transform="translate(123.65 88.129)" fill="#767d9f"/><circle data-name="Ellipse 79" cx=".493" cy=".493" r=".493" transform="translate(124.875 96.592)" fill="#767d9f"/><circle data-name="Ellipse 80" cx=".493" cy=".493" r=".493" transform="translate(121.643 72.149)" fill="#767d9f"/><path data-name="Path 705" d="M126.469 49.015a10.9 10.9 0 01-2.508 2.121c-.451 0-1.54-1.254-2.121-1.957a7.567 7.567 0 011.466-1.829c1.232.669 2.264 1.212 3.163 1.665z" opacity=".1"/><path data-name="Path 706" d="M126.469 48.538a11.132 11.132 0 01-2.508 2.134c-.451 0-1.54-1.254-2.121-1.957a7.549 7.549 0 011.466-1.832c1.232.656 2.264 1.199 3.163 1.655z" fill="#cbcdda"/><path data-name="Path 707" d="M113.3 56.296s-1.2 2.879-2.362 4.979a9.186 9.186 0 01-1.265 1.88c-.668.668-1.326 2.678-1.832 4.489-.483 1.755-.8 3.327-.8 3.327-.679 1.039-.679 13.92-.679 13.92 1.159 4.947-.957 18.984-.957 18.984l-.622 6.814-.191 2.052-.034.39c-.448.019-.88.032-1.294.037a29.711 29.711 0 01-3.076-.109 15.654 15.654 0 01-.668-.069l.872-22.118 2.511-19.7.92-8.256 2.983-1.453c.49-3.919 1.437-8.659 3.2-10.552a5.381 5.381 0 001.132-1.928 8.818 8.818 0 01.713-.565s.308.591.671 1.3c.39.761.846 1.657 1.061 2.121.435.867-.283 4.457-.283 4.457z" opacity=".1"/><path data-name="Path 708" d="M112.823 56.058s-2.312 5.544-3.627 6.859-2.633 7.816-2.633 7.816c-.679 1.039-.679 13.92-.679 13.92 1.156 4.947-.957 18.984-.957 18.984l-.859 9.253c-15.815.732-11.478-8.015-11.478-8.015l3.669-19.885s1.217-5.955 1.1-7.631 1.525-7.358 1.525-7.358-2.9-15.076-2.6-15.762 10.409-2.386 10.409-2.386a4.447 4.447 0 001.01-.082 1.8 1.8 0 001.471-1.084 6.466 6.466 0 012.177-2.495s.3.591.668 1.3c.39.761.848 1.657 1.076 2.121.441.855-.272 4.445-.272 4.445z" fill="#cbcdda"/><path data-name="Path 709" d="M112.026 49.958c-1.567 1.413-3.251 6.5-3.251 6.5l-1.061-4.221a1.8 1.8 0 001.471-1.084 6.473 6.473 0 012.177-2.492z" opacity=".1"/><path data-name="Path 710" d="M112.026 49.482c-1.567 1.413-3.251 6.5-3.251 6.5l-1.061-4.221a1.8 1.8 0 001.471-1.084 6.466 6.466 0 012.177-2.495z" fill="#cbcdda"/><path data-name="Path 711" d="M93.448 105.591s.209 2.423 5.175.928-5.175-.928-5.175-.928z" opacity=".1"/><path data-name="Path 712" d="M154.939 82.779c-.719 1.355-1.636 3.59-2.352 3.908a7.517 7.517 0 01-2.193.069c-1.487-.08-3.152-.265-3.152-.265s3.746-8.153-1.36-10.229h-4.621l-2.954-3.081 7.776-7.458 1.159.679 5.9 8.8s.6.676 1.159 1.326.156 1.875.156 1.875 1.201 3.021.482 4.376z" fill="#cbcdda"/><path data-name="Path 713" d="M126.916 74.005s2.24-17.579 8.924-22.375a6.075 6.075 0 00-.7-.119 19.256 19.256 0 01-6.737-1.591 17.5 17.5 0 00-4.73 12.992c.49 8.975 0 11.069 0 11.069h.8c1.426 2.89 7.482 14.9 10.844 17.417l.358-3.054s-8.728-10.075-9.484-14.362z" opacity=".1"/><path data-name="Path 714" d="M127.876 73.769s2.24-17.581 8.924-22.375a5.547 5.547 0 00-.7-.119 19.545 19.545 0 01-6.737-1.578 17.5 17.5 0 00-4.73 12.992c.49 8.975 0 11.069 0 11.069h.8c1.426 2.89 7.482 14.893 10.844 17.414l.358-3.052s-8.728-10.075-9.481-14.362z" opacity=".1"/><path data-name="Path 715" d="M124.634 73.138s7.323 15.171 11.152 18.029l.358-3.052s-10.269-11.852-9.492-15.32z" fill="#6e6d84"/><path data-name="Path 716" d="M136.337 51.391c-6.687 4.794-8.927 22.375-8.927 22.375h-3.254s.491-2.095 0-11.069a17.5 17.5 0 014.733-12.992 19.459 19.459 0 006.734 1.578 5.591 5.591 0 01.714.108z" fill="#6e6d84"/><path data-name="Path 717" d="M132.607 90.905l-.209 12.2 2.063 1.047z" opacity=".1"/><path data-name="Path 718" d="M137.151 65.149c1.376-.329 4.905-1.5 5.038-2.651s-5.038 2.651-5.038 2.651z" opacity=".1"/><path data-name="Path 719" d="M137.361 67.453s4.367-1.8 5.056-2.514-5.713 1.08-5.056 2.514z" opacity=".1"/><path data-name="Path 720" d="M106.722 54.701s-1.906 3.76-.758 4.152.758-4.152.758-4.152z" opacity=".1"/><path data-name="Path 721" d="M121.321 95.752s-15.314 9.044-12.085 9.561 12.085-9.561 12.085-9.561z" opacity=".1"/><path data-name="Path 722" d="M130.502 114.884s4.027.758 3.868 2" opacity=".1"/><path data-name="Path 723" d="M149.385 79.61l-.18 4.656s-1.135 1.973-1.962 2.222a1.06 1.06 0 01-.3.021c-1.625-.088-7.761-1.883-8.309-2.9-.6-1.106-9.662-5.083-9.662-5.083s-7.625-11.579-1.914-14.389 5.443 10.918 5.443 10.918 5.175.777 5.833 1.2c.551.361 5.639.109 7.159.024l.4-.013 1.615.3z" fill="#ffb9b9"/><path data-name="Path 724" d="M149.384 79.61l-.18 4.656s-1.135 1.973-1.962 2.222a1.06 1.06 0 01-.3.021l-.162-.019s3.712-8.092-1.3-10.216l.408-.013 1.615.3z" opacity=".1"/><path data-name="Path 725" d="M150.633 86.756c-1.485-.08-3.15-.265-3.15-.265s3.744-8.15-1.355-10.237l4-.4c4.996 3.324 1.536 9.33.505 10.902z" opacity=".1"/><path data-name="Path 726" d="M150.39 86.754c-1.487-.08-3.152-.265-3.152-.265s3.752-8.153-1.355-10.229l4.006-.39c5.008 3.308 1.537 9.316.501 10.884z" fill="#cbcdda"/><path data-name="Path 727" d="M90.334 57.171l11.563-10.287s3.11-2.917 2.871-3.829-2.832-9.015 1.514-9.492 2.917 13.559 2.917 13.559l-12.4 15.235z" fill="#ffb9b9"/><path data-name="Path 728" d="M83.071 68.101s-.838-3.948.437-5.382 7.061-6.461 7.061-6.461 2.9 4.507 8.055 3.85l-5.769 7.715s-2.553 3.351-6.263 3.031-3.521-2.753-3.521-2.753z" opacity=".1"/><path data-name="Path 729" d="M82.83 68.342s-.838-3.948.44-5.385 7.058-6.461 7.058-6.461 4.947 4.985 7.779 5.584l-5.5 5.981s-2.553 3.351-6.263 3.033-3.514-2.752-3.514-2.752z" fill="#cbcdda"/><path data-name="Path 730" d="M92.688 58.909l-5.16-.459s2.3-2.871 3.529-2.962 1.265.156 1.265.156l-1.628 1.448z" opacity=".1"/><path data-name="Path 731" d="M92.688 58.669l-5.16-.459s2.3-2.871 3.529-2.962 1.265.156 1.265.156l-1.628 1.448z" fill="#cbcdda"/><path data-name="Path 732" d="M93.65 59.897s-1.326 4.7 3.269 5.014l1.466-4.558s-2.97.584-4.735-.456z" opacity=".1"/><path data-name="Path 733" d="M93.887 59.658s-1.339 4.685 3.267 5.014l1.466-4.566s-2.968.591-4.733-.448z" fill="#cbcdda"/><path data-name="Path 734" d="M131.159 161.58l-.679-7.689s-.4-5.9.04-8.174a38.816 38.816 0 00.459-4.441c.072-1.275.1-2.259.1-2.259l-12.2-.838-.032.048 11.518.8s-.029.984-.1 2.259a39.44 39.44 0 01-.456 4.441c-.44 2.272-.042 8.174-.042 8.174l.681 7.689c1.591 3.712.156 12.483-.281 13.838s-2.2 10.253-3.152 11.687-2.081 9.685-2.081 9.685l-.623.44.66.04.681-.48s1.114-8.254 2.071-9.691 2.715-10.34 3.152-11.687 1.88-10.133.284-13.842z" opacity=".1"/><path data-name="Path 735" d="M132.646 119.95l2.471 1.514v19.9l-17.958-.9-1.238-14.622 2.943-3.579z" fill="#4c4c78"/><path data-name="Path 736" d="M119.522 131.237s7.58 6.18 9.892 6.581" opacity=".1"/><path data-name="Path 737" d="M125.586 196.687a3.657 3.657 0 00-.215.631l-.464.326s-6.864-.321-6.069-1.556a3.6 3.6 0 00.3-1.156c1.6-.371 4.324 1.474 4.324 1.474z" opacity=".1"/><path data-name="Path 738" d="M126.103 210.047a12.106 12.106 0 00-.636 3.229s-1.477 2.232-3.55 1.556-8.256-.4-8.617-.557c-1.164-.53-.655-1.75 0-2.874.379-.644.8-1.251.994-1.673.53-1.159 1.715-4.189 1.715-4.189a7.233 7.233 0 011.676-4.587l.8-5.186c1.344-1.352 4.985 1.119 4.985 1.119l2.121.281c-1.076 2.352.04 8.932.04 8.932s.175.552.342 1.259a5.187 5.187 0 01.13 2.69z" fill="#c7c0d9"/><path data-name="Path 739" d="M126.103 210.047a12.106 12.106 0 00-.636 3.229s-1.477 2.232-3.55 1.556-8.256-.4-8.617-.557c-1.164-.53-.655-1.75 0-2.874 2.808.154 9.089.448 10.486-.08 1.792-.676 2.2-3.012 2.177-3.958a5.119 5.119 0 01.14 2.684z" opacity=".1"/><circle data-name="Ellipse 81" cx=".411" cy=".411" r=".411" transform="translate(122.19 201.91)" fill="#605b89"/><circle data-name="Ellipse 82" cx=".411" cy=".411" r=".411" transform="translate(117.279 201.91)" fill="#605b89"/><circle data-name="Ellipse 83" cx=".411" cy=".411" r=".411" transform="translate(122.19 204.137)" fill="#605b89"/><circle data-name="Ellipse 84" cx=".411" cy=".411" r=".411" transform="translate(117.176 204.137)" fill="#605b89"/><circle data-name="Ellipse 85" cx=".411" cy=".411" r=".411" transform="translate(120.957 209.185)" fill="#605b89"/><circle data-name="Ellipse 86" cx=".411" cy=".411" r=".411" transform="translate(116.765 209.185)" fill="#605b89"/><circle data-name="Ellipse 87" cx=".411" cy=".411" r=".411" transform="translate(121.155 208.053)" fill="#605b89"/><circle data-name="Ellipse 88" cx=".411" cy=".411" r=".411" transform="translate(116.868 208.053)" fill="#605b89"/><circle data-name="Ellipse 89" cx=".411" cy=".411" r=".411" transform="translate(121.368 206.746)" fill="#605b89"/><circle data-name="Ellipse 90" cx=".411" cy=".411" r=".411" transform="translate(117.279 206.746)" fill="#605b89"/><circle data-name="Ellipse 91" cx=".411" cy=".411" r=".411" transform="translate(121.779 205.441)" fill="#605b89"/><circle data-name="Ellipse 92" cx=".411" cy=".411" r=".411" transform="translate(117.279 205.441)" fill="#605b89"/><path data-name="Path 740" d="M118.573 199.285a3.268 3.268 0 004.627.53" fill="none" stroke="#000" stroke-miterlimit="10" stroke-width=".854" opacity=".1"/><path data-name="Path 741" d="M117.69 202.321s5.321 1.326 4.91 2.227c0 0-4.68-.673-5.014 0s4.6 1.3 4.6 1.3-4.059.634-4.507 0 4.088 1.3 4.088 1.3-4.088-.411-4.088 0 3.876 1.307 3.876 1.307-3.622-.382-3.876 0 3.606.53 3.677 1.132-4.192-.411-4.192 0 5.425-7.275 5.425-7.275" fill="none" stroke="#605b89" stroke-miterlimit="10" stroke-width=".854" opacity=".2"/><ellipse data-name="Ellipse 93" cx="7.933" cy="1.342" rx="7.933" ry="1.342" transform="translate(8.817 208.538)" fill="#044aaf" opacity=".1"/><path data-name="Path 742" d="M11.421 203.65s4.526-.141 5.889-1.111 6.96-2.121 7.3-.573 6.8 7.745 1.692 7.787-11.87-.8-13.233-1.625-1.648-4.478-1.648-4.478z" fill="#a8a8a8"/><path data-name="Path 743" d="M26.39 209.209c-5.109.042-11.87-.8-13.23-1.625-1.037-.631-1.45-2.9-1.591-3.943h-.151s.286 3.648 1.646 4.478 8.124 1.665 13.233 1.625c1.474-.013 1.983-.53 1.957-1.326-.201.489-.766.783-1.864.791z" opacity=".2"/></g></g></svg>