<svg xmlns="http://www.w3.org/2000/svg" width="346.878" height="346.878"><defs><clipPath id="a"><path data-name="Rectangle 370" fill="#fff" stroke="#707070" d="M0 0h253.932v253.932H0z"/></clipPath><clipPath id="b"><path data-name="Rectangle 368" transform="translate(-.382 .334)" fill="#fff" stroke="#707070" d="M0 0h272v270H0z"/></clipPath></defs><g data-name="Group 113"><g data-name="Mask Group 24" transform="rotate(60 109.956 190.449)" opacity=".15" clip-path="url(#a)"><g data-name="blob-shape (4)"><path data-name="Path 502" d="M219.699 30.046c24.394 12.616 38.538 47.261 33.019 76.337s-30.7 52.682-55.1 75.7c-24.394 22.965-48 45.388-74.218 48.05-26.267 2.711-55.2-14.39-79.245-37.4C20.108 169.759.888 140.831.05 111.114c-.788-29.766 16.806-60.321 40.855-72.937 24.05-12.665 54.604-7.441 87.179-9.457s67.221-11.34 91.615 1.326z" fill="#044aaf"/></g></g><g data-name="Mask Group 23" transform="translate(44.76 15.694)" clip-path="url(#b)"><g transform="translate(-.142 73.728)"><path data-name="Path 475" d="M132.74 102.387c4.053 4.35 4.263 10.742 4.263 10.742s-6.362-.659-10.416-5.009-4.263-10.742-4.263-10.742 6.362.659 10.416 5.009z" fill="#044aaf"/><path data-name="Path 476" d="M145.501 109.176c-4.35 4.053-10.742 4.263-10.742 4.263s.659-6.362 5.009-10.416 10.742-4.263 10.742-4.263-.66 6.363-5.009 10.416z" fill="#044aaf"/><path data-name="Path 477" d="M144.42 122.084h-16a1.636 1.636 0 01-1.471-.92l-3.483-7.16a1.636 1.636 0 011.471-2.352h22.964a1.636 1.636 0 011.471 2.352l-3.483 7.16a1.636 1.636 0 01-1.471.92z" fill="#3f3d56"/><circle data-name="Ellipse 48" cx="13.32" cy="13.32" r="13.32" transform="translate(202.944 8.128)" fill="#ffb8b8"/><path data-name="Path 478" d="M206.317 28.108s2.51 18.919-1.351 21.042 22.973 2.317 22.973 2.317-5.985-16.409-3.282-21.428z" fill="#ffb8b8"/><path data-name="Path 479" d="M247.538 51.562l-2.232 10.162-4.719 21.5-.141 1.177-1.629 13.631-1.083 9.055-.726 6.083c-4.416 2.27-7.617 3.837-7.617 3.837s-.275-1.38-.719-3.146a67.547 67.547 0 01-13.694 2.779c1.77 1.973 2.583 3.826 1.48 5.193-3.329 4.123-17.074-4.514-21.882-7.735a13.009 13.009 0 00-.127 2.329l-3.679-2.829.364-6.51.615-11.016.772-13.814a14.511 14.511 0 01-.61-1.817c-1.127-4.007-2.494-12.008-3.543-18.717-.844-5.4-1.478-9.963-1.612-10.934l-.027-.192 20.366-9c1.447 3.357 8.206 4.366 8.206 4.366a22.667 22.667 0 009.988-3.338z" fill="#d0cde1"/><path data-name="Path 480" d="M230.934 113.147s-.862.3-2.264.714a67.549 67.549 0 01-13.694 2.779c-4.184.268-7.72-.377-8.367-3.107a2.885 2.885 0 01.973-2.933c2.558-2.371 9.238-3.221 14.536-3.512a97.513 97.513 0 017.271-.119l.031.12z" fill="#ffb8b8"/><path data-name="Path 481" d="M205.182 8.848l-2.491-1s5.208-5.733 12.453-5.235L213.106.37s4.981-1.994 9.509 3.241a44.2 44.2 0 016.852 9.63h2.667l-1.113 2.451 3.9 2.451-4-.44a13.7 13.7 0 01.109 4.066 5.26 5.26 0 01-1.929 3.442s-3.089-6.393-3.089-7.391v2.491s-2.49-2.243-2.49-3.739l-1.359 1.745-.679-2.742-8.377 2.742 1.359-2.243-5.208.748 2.038-2.742s-5.887 3.241-6.113 5.983a13.164 13.164 0 01-1.949 5.34s-4.618-12.816 1.948-16.555z" fill="#2f2e41"/><path data-name="Path 482" d="M262.016 98.281c-1.357 1.471-4.719 3.686-8.794 6.085-1.516.891-3.13 1.81-4.777 2.723a423.302 423.302 0 01-11.437 6.083c-4.416 2.27-7.617 3.837-7.617 3.837s-.275-1.38-.719-3.146c-.594-2.364-1.489-5.42-2.422-6.773a2.333 2.333 0 00-.1-.134c-.272-.357-.545-.565-.815-.565l13.48-8.356 5.826-3.612-4.2-10.019-5.264-12.568 3.177-10.109 3.194-10.162h5.988a392.887 392.887 0 005.684 13.171c5.216 12.677 11.716 30.384 8.796 33.545z" fill="#d0cde1"/><path data-name="Path 483" d="M216.458 121.836c-3.329 4.123-17.074-4.514-21.882-7.735-1.047-.7-1.67-1.145-1.67-1.145l4.4-5.865 1.393-1.857s1.246.661 3.088 1.737l.2.12a107.95 107.95 0 015.6 3.512 42.228 42.228 0 017.394 6.039c1.766 1.969 2.58 3.822 1.477 5.194z" fill="#ffb8b8"/><path data-name="Path 484" d="M201.786 106.968a8.648 8.648 0 00-1.467.12c-4.164.716-5.393 4.485-5.742 7.01a13.015 13.015 0 00-.127 2.329l-3.679-2.829-1.34-1.031a24.429 24.429 0 01-8.593-5.479 43.2 43.2 0 01-5.787-6.863 60.524 60.524 0 01-4.478-7.68 5.648 5.648 0 01-.078-4.791l4.556-10.153 6.659-14.839q.073-.53.161-1.036c1.32-7.572 4.858-10.934 4.858-10.934h2.7l1.808 10.934 2.246 13.584-1.574 5.134-3.637 11.856 3.476 3.775z" fill="#d0cde1"/><path data-name="Path 485" d="M204.844 75.319l2.31 2.7a67.037 67.037 0 002.678-.572l-.664-2.124 1.622 1.893a219.159 219.159 0 0021.9-7.083s-13.089.96-22.861-1.175a9.3 9.3 0 00-10.547 5.253c-1.031 2.357-.869 4.4 2.788 4.4a24.161 24.161 0 003.687-.347z" fill="#044aaf"/><path data-name="Path 486" d="M257.515 119.622v1.1a2.418 2.418 0 01-.165.882 2.478 2.478 0 01-.176.362 2.434 2.434 0 01-2.092 1.188h-80.888a2.434 2.434 0 01-2.092-1.188 2.476 2.476 0 01-.176-.362 2.416 2.416 0 01-.165-.882v-1.1a2.432 2.432 0 012.433-2.433h4.662v-.513a.1.1 0 01.1-.1h2.433a.1.1 0 01.1.1v.513h1.52v-.513a.1.1 0 01.1-.1h2.433a.1.1 0 01.1.1v.513h1.522v-.513a.1.1 0 01.1-.1h2.442a.1.1 0 01.1.1v.513h1.52v-.513a.1.1 0 01.1-.1h2.433a.1.1 0 01.1.1v.513h1.52v-.513a.1.1 0 01.1-.1h2.433a.1.1 0 01.1.1v.513h1.522v-.513a.1.1 0 01.1-.1h2.433a.1.1 0 01.1.1v.513h1.52v-.513a.1.1 0 01.1-.1h19.056a.1.1 0 01.1.1v.513h1.522v-.513a.1.1 0 01.1-.1h2.441a.1.1 0 01.1.1v.513h1.52v-.513a.1.1 0 01.1-.1h2.433a.1.1 0 01.1.1v.513h1.52v-.513a.1.1 0 01.1-.1h2.433a.1.1 0 01.1.1v.513h1.522v-.513a.1.1 0 01.1-.1h2.433a.1.1 0 01.1.1v.513h1.521v-.513a.1.1 0 01.1-.1h2.433a.1.1 0 01.1.1v.513h1.52v-.513a.1.1 0 01.1-.1h2.433a.1.1 0 01.1.1v.513h7.1a2.432 2.432 0 012.441 2.433z" fill="#3f3d56"/><path data-name="Path 487" d="M251.002 73.318h-30.15v-.621h-13.671v.621h-30.273a2.039 2.039 0 00-2.039 2.039v41.282a2.039 2.039 0 002.039 2.039h74.094a2.039 2.039 0 002.039-2.039V75.357a2.039 2.039 0 00-2.039-2.039z" fill="#3f3d56"/><circle data-name="Ellipse 49" cx="4.529" cy="4.529" r="4.529" transform="translate(209.486 83.202)" fill="none" stroke="#d0cde1" stroke-miterlimit="10" stroke-width="1.493"/><circle data-name="Ellipse 50" cx="4.529" cy="4.529" r="4.529" transform="translate(208.036 84.833)" fill="#d0cde1"/><circle data-name="Ellipse 51" cx="6.593" cy="6.593" r="6.593" transform="translate(73.005 40.128)" fill="#2f2e41"/><path data-name="Path 488" d="M81.434 40.31a6.594 6.594 0 015.8 9.722 6.591 6.591 0 10-10.951-7.242 6.576 6.576 0 015.151-2.48z" fill="#2f2e41"/><circle data-name="Ellipse 52" cx="19.366" cy="19.366" r="19.366" transform="translate(47.912 7.974)" fill="#2f2e41"/><path data-name="Path 489" d="M52.08 15.325a19.363 19.363 0 0126.839-2.031c-.158-.151-.315-.3-.48-.449a19.366 19.366 0 00-25.734 28.948c.165.146.334.284.5.424a19.363 19.363 0 01-1.125-26.892z" fill="#2f2e41"/><circle data-name="Ellipse 53" cx="12.473" cy="12.473" r="12.473" transform="translate(54.641 21.596)" fill="#a0616a"/><path data-name="Path 490" d="M58.252 38.009s1.641 15.1-.985 16.74 15.1 3.939 15.1 3.939-2.626-16.412 3.939-20.679z" fill="#a0616a"/><path data-name="Path 491" d="M74.007 52.123s4.888-2.282-2.152-1.469a25.479 25.479 0 01-13.112-2.305s-2.133-2.134-2.461.164.985 6.565-6.237 7.221-13.786-1.313-16.412 3.611-1.313 26.259-1.313 26.259 4.924 17.725 8.863 20.351 38.4-.985 38.4-.985l9.847-17.725v-20.68s-1.313-7.221-10.5-5.252c0 0-5.908-1.313-5.58-4.267s.657-4.923.657-4.923z" fill="#d0cde1"/><path data-name="Path 492" d="M42.486 118.498c.2-.884.339-1.384.339-1.384l-.105-.719-1.081-7.343-.455-3.1c3.938-1.641 4.923-9.191 4.923-9.191l.149-.089.672-.4 2.413-1.447.049-.029.975.648 1.98 1.32a23.282 23.282 0 0018.333 4.2 20.186 20.186 0 004.315-1.246l4.775-1.592.149-.049.147.022 2.8.424.051.009.232.034-.649 4.483-.94 6.516c2.483 1.315 4.692 3.786 6.622 6.831q.641 1.011 1.243 2.1a51.02 51.02 0 011.664 3.287c.183.393.364.79.54 1.188H41.616c.065-.4.13-.783.194-1.15a.281.281 0 00.007-.038 73.71 73.71 0 01.669-3.285z" fill="#2f2e41"/><path data-name="Path 493" d="M40.522 55.405a25.185 25.185 0 012.3 14.771c-1.313 8.206 3.939 28.557 3.939 28.557l3.939-.985s-2.626-17.068-1.969-21.007.656-19.366-2.626-21.336a4.775 4.775 0 00-5.583 0z" fill="#2f2e41"/><path data-name="Path 494" d="M78.701 62.228l1.38 36.341 2.626 1.641s3.775-39.881 1.805-39.881h-4.008a1.806 1.806 0 00-1.8 1.9z" fill="#2f2e41"/><circle data-name="Ellipse 54" cx="1.641" cy="1.641" r="1.641" transform="translate(46.928 94.63)" fill="#044aaf"/><circle data-name="Ellipse 55" cx="1.641" cy="1.641" r="1.641" transform="translate(79.752 96.271)" fill="#044aaf"/><path data-name="Path 495" d="M56.447 18.478v12.474h2.889l3.676-3.939-.492 3.939h12.769l-.788-3.939 1.576 3.939h2.035V18.478z" fill="#2f2e41"/><ellipse data-name="Ellipse 56" cx=".985" cy="1.805" rx=".985" ry="1.805" transform="translate(53.492 29.638)" fill="#a0616a"/><ellipse data-name="Ellipse 57" cx=".985" cy="1.805" rx=".985" ry="1.805" transform="translate(78.767 29.638)" fill="#a0616a"/><path data-name="Path 496" d="M86.48 97.748s-14.935-2.79-15.92 2.134 16.576 2.79 16.576 2.79z" fill="#a0616a"/><path data-name="Path 497" d="M86.152 63.94s35.778 28.557 29.213 35.45-31.511 4.924-31.511 4.924l1.641-8.206 14.442-1.641-7.221-7.221-6.565.656z" fill="#d0cde1"/><path data-name="Path 498" d="M33.306 111.534l4.6 3.611s3.282 10.175 8.206 7.221-4.6-13.458-4.6-13.458l-5.58-1.969z" fill="#a0616a"/><path data-name="Path 499" d="M37.901 58.688l-4.583 1.379S1.466 83.634.153 90.199s6.24 10.175 6.24 10.175l28.557 13.458 2.954-7.878-13.458-6.893s.985-1.969-2.954-2.3-4.6-4.6-4.6-4.6 7.878-12.145 12.145-9.519 5.58 4.6 5.58 4.6z" fill="#d0cde1"/><path data-name="Path 500" d="M103.267 119.622v1.1a2.417 2.417 0 01-.165.882 2.477 2.477 0 01-.176.362 2.434 2.434 0 01-2.092 1.188H19.946a2.434 2.434 0 01-2.092-1.188 2.48 2.48 0 01-.176-.362 2.417 2.417 0 01-.165-.882v-1.1a2.432 2.432 0 012.433-2.433h4.663v-.513a.1.1 0 01.1-.1h2.433a.1.1 0 01.1.1v.513h1.52v-.513a.1.1 0 01.1-.1h2.433a.1.1 0 01.1.1v.513h1.522v-.513a.1.1 0 01.1-.1h2.433a.1.1 0 01.1.1v.513h1.52v-.513a.1.1 0 01.1-.1h2.433a.1.1 0 01.1.1v.513h1.52v-.513a.1.1 0 01.1-.1h2.433a.1.1 0 01.1.1v.513h1.522v-.513a.1.1 0 01.1-.1h2.433a.1.1 0 01.1.1v.513h1.52v-.513a.1.1 0 01.1-.1h19.056a.1.1 0 01.1.1v.513h1.522v-.513a.1.1 0 01.1-.1h2.433a.1.1 0 01.1.1v.513h1.52v-.513a.1.1 0 01.1-.1h2.433a.1.1 0 01.1.1v.513h1.52v-.513a.1.1 0 01.1-.1h2.433a.1.1 0 01.1.1v.513h1.522v-.513a.1.1 0 01.1-.1h2.433a.1.1 0 01.1.1v.513h1.522v-.513a.1.1 0 01.1-.1h2.433a.1.1 0 01.1.1v.513h1.52v-.513a.1.1 0 01.1-.1h2.459a.1.1 0 01.1.1v.513h7.1a2.432 2.432 0 012.43 2.433z" fill="#3f3d56"/><path data-name="Path 501" d="M96.754 73.317h-30.15v-.621h-13.67v.621H22.66a2.039 2.039 0 00-2.039 2.039v41.285a2.039 2.039 0 002.039 2.039h74.094a2.039 2.039 0 002.039-2.039V75.357a2.039 2.039 0 00-2.039-2.04z" fill="#3f3d56"/><circle data-name="Ellipse 58" cx="4.529" cy="4.529" r="4.529" transform="translate(55.238 83.202)" fill="none" stroke="#d0cde1" stroke-miterlimit="10" stroke-width="1.493"/><circle data-name="Ellipse 59" cx="4.529" cy="4.529" r="4.529" transform="translate(53.789 84.832)" fill="#d0cde1"/><path data-name="Rectangle 369" fill="#3f3d56" d="M3.34 121.803h267.853v.564H3.34z"/></g></g></g></svg>