<svg xmlns="http://www.w3.org/2000/svg" width="346" height="346"><defs><clipPath id="a"><path data-name="Rectangle 351" fill="#fff" stroke="#707070" d="M0 0h282.508v282.508H0z"/></clipPath><clipPath id="b"><path data-name="Rectangle 352" transform="translate(.348 .235)" fill="#fff" stroke="#707070" d="M0 0h273v273H0z"/></clipPath></defs><g data-name="Group 111"><g data-name="Mask Group 21" transform="rotate(-14.98 277.53 36.433)" opacity=".15" clip-path="url(#a)"><g data-name="blob-shape (4)"><path data-name="Path 428" d="M244.422 33.427c27.14 14.036 42.875 52.58 36.734 84.928s-34.158 58.611-61.3 84.215c-27.14 25.55-53.4 50.5-82.57 53.457-29.223 3.016-61.407-16.01-88.163-41.614C22.371 188.867.988 156.679.056 123.618c-.877-33.116 18.7-67.109 45.452-81.145 26.756-14.09 60.749-8.278 96.99-10.526s74.785-12.611 101.924 1.48z" fill="#044aaf"/></g></g><g data-name="Mask Group 22" transform="translate(12.152 24.265)" clip-path="url(#b)"><g transform="translate(0 38.51)"><path data-name="Rectangle 353" fill="#044aaf" opacity=".3" d="M166.539 12.386h19.521v7.27h-19.521z"/><path data-name="Rectangle 354" fill="#044aaf" opacity=".3" d="M198.985 0h19.521v7.27h-19.521z"/><path data-name="Rectangle 355" fill="#044aaf" opacity=".3" d="M200.331 22.483h19.521v7.27h-19.521z"/><path data-name="Rectangle 356" fill="#044aaf" opacity=".3" d="M137.863 30.83h19.521v7.27h-19.521z"/><path data-name="Rectangle 357" fill="#044aaf" opacity=".3" d="M131.67 60.718h19.521v7.27H131.67z"/><path data-name="Rectangle 358" fill="#044aaf" opacity=".3" d="M161.154 60.045h19.521v7.27h-19.521z"/><path data-name="Path 429" d="M198.988 3.589L186.06 15.852l14.271 10.262" fill="none" stroke="#3f3d56" stroke-miterlimit="10" stroke-width=".678"/><path data-name="Line 32" fill="none" stroke="#3f3d56" stroke-miterlimit="10" stroke-width=".678" d="M166.539 15.853l-18.915 14.978"/><path data-name="Path 430" d="M141.435 60.713l6.193-22.612 23.291 21.945" fill="none" stroke="#3f3d56" stroke-miterlimit="10" stroke-width=".678"/><path data-name="Rectangle 359" fill="#044aaf" opacity=".3" d="M34.869 19.875H54.39v7.27H34.869z"/><path data-name="Rectangle 360" fill="#044aaf" opacity=".3" d="M67.315 7.489h19.521v7.27H67.315z"/><path data-name="Rectangle 361" fill="#044aaf" opacity=".3" d="M68.661 29.973h19.521v7.27H68.661z"/><path data-name="Rectangle 362" fill="#044aaf" opacity=".3" d="M6.193 38.32h19.521v7.27H6.193z"/><path data-name="Rectangle 363" fill="#044aaf" opacity=".3" d="M0 68.208h19.521v7.27H0z"/><path data-name="Rectangle 364" fill="#044aaf" opacity=".3" d="M29.484 67.534h19.521v7.27H29.484z"/><path data-name="Path 431" d="M67.316 11.081L54.39 23.342l14.271 10.266" fill="none" stroke="#3f3d56" stroke-miterlimit="10" stroke-width=".678"/><path data-name="Line 33" fill="none" stroke="#3f3d56" stroke-miterlimit="10" stroke-width=".678" d="M34.869 23.342L15.954 38.32"/><path data-name="Path 432" d="M9.762 68.201l6.193-22.612 23.291 21.945" fill="none" stroke="#3f3d56" stroke-miterlimit="10" stroke-width=".678"/><path data-name="Line 34" fill="none" stroke="#3f3d56" stroke-miterlimit="10" stroke-width=".678" d="M88.183 33.608h22.138"/><path data-name="Rectangle 365" fill="#044aaf" d="M100.383 29.887h22.952v7.248h-22.952z"/><path data-name="Line 35" fill="none" stroke="#3f3d56" stroke-miterlimit="10" stroke-width=".678" d="M123.365 33.511h14.498"/><path data-name="Line 36" fill="none" stroke="#3f3d56" stroke-miterlimit="10" stroke-width=".678" d="M100.273 33.511L86.836 11.079"/><ellipse data-name="Ellipse 47" cx="106.302" cy="23.676" rx="106.302" ry="23.676" transform="translate(60.641 148.873)" fill="#f2f2f2"/><path data-name="Path 433" d="M216.224 94.611l-10.366 51.936h-2.244l-.247-.384-.715-1.112 8.977-48.517 1.363-.571z" fill="#47465a"/><path data-name="Path 434" d="M212.992 95.964l-9.624 50.2-.715-1.112 8.977-48.517z" opacity=".1"/><path data-name="Path 435" d="M231.823 165.361l-2.665.859-.648.209-.855-1.924-14.667-66.906 1.525-.342 3.2-.718z" fill="#47465a"/><path data-name="Path 436" d="M229.162 166.215l-.648.209-.855-1.924-14.667-66.906 1.525-.342z" opacity=".1"/><path data-name="Path 437" d="M104.765 94.611l-2.351 67.325-2.694.6-.191.043-.748-1.389 1.5-65.936 1.439-.205z" fill="#47465a"/><path data-name="Path 438" d="M101.716 95.049l-2 67.487-.191.043-.748-1.389 1.5-65.936z" opacity=".1"/><path data-name="Path 439" d="M118.762 185.768l-2.787.481-.312.053-.855-1.817-13.572-87.95.391-.119 2.067-.629z" fill="#47465a"/><path data-name="Path 440" d="M115.977 186.248l-.312.053-.855-1.817-13.572-87.95.391-.119z" opacity=".1"/><path data-name="Path 441" d="M177.754 89.161l10.377 13.259a3.365 3.365 0 003.041 1.268l42.6-4.989a3.365 3.365 0 002.974-3.342v-9.83z" fill="#7a799c"/><path data-name="Path 442" d="M212.698 91.299h2.885v4.164a1.072 1.072 0 01-1.072 1.072h-.741a1.072 1.072 0 01-1.072-1.072v-4.164z" fill="#47465a"/><path data-name="Path 443" d="M101.238 97.604l10.377 13.259a3.365 3.365 0 003.041 1.268l42.6-4.989a3.365 3.365 0 002.974-3.342v-9.83z" fill="#7a799c"/><path data-name="Path 444" d="M136.183 99.742h2.885v4.164a1.072 1.072 0 01-1.072 1.072h-.741a1.072 1.072 0 01-1.072-1.072z" fill="#47465a"/><path data-name="Path 445" d="M113.159 104.319l126.708-14.76a1.863 1.863 0 00.623-3.515l-22.666-11.4a26.234 26.234 0 00-14.448-2.662L90.804 83.462a2.155 2.155 0 00-1.319 3.647l13.109 13.449a12.726 12.726 0 0010.563 3.76z" fill="#47465a"/><path data-name="Path 446" d="M253.807 87.564l-1.355-.749s-1.463 1.077-2.655 5.615 2.228.049 2.228.049l1.5-3.1z" fill="#47465a"/><path data-name="Path 447" d="M239.307 129.129s-1.389 6.519-2.03 8.335c-.314.889-1.832 1.7-3.514 2.324a23.529 23.529 0 01-4.608 1.2c-1.817.214-25.113-3.42-36.441-5.878-7.631-1.655-8.618-3.554-8.449-4.617a1.542 1.542 0 01.434-.834s11.221-7.587 15.175-11.221 11.755-.748 20.3.748 19.133 9.943 19.133 9.943z" fill="#47465a"/><path data-name="Path 448" d="M252.451 86.81s5.236 3.42-12.4 10.473c0 0-9.584 5.4-8.336 27.664a6.1 6.1 0 00.887 2.827c1.819 2.992 5.718 10.567-.78 11.507v1.71s11.755-5.878 13.038-10.9 5.557-32.914 7.694-35.479 3.534-6.626-.103-7.802z" fill="#47465a"/><path data-name="Path 449" d="M233.765 139.789a23.522 23.522 0 01-4.608 1.2c-1.817.214-25.113-3.42-36.441-5.878-7.631-1.655-8.618-3.554-8.449-4.617 5.016 1.715 21.3 7.159 27.15 7.609 6.946.534 20.217 2.02 21.222 1.01.386-.39.782.024 1.126.676z" opacity=".1"/><path data-name="Path 450" d="M172.731 184.269l10.148-46.377s1.817-4.916 5.984-4.7l3.847 1.924s-6.412-1.5-7.8 3.42-10.255 45.733-10.255 45.733z" fill="#47465a"/><path data-name="Path 451" d="M197.096 163.112l4.061-28.319h1.817l-4.168 28.319z" fill="#47465a"/><path data-name="Path 452" d="M235.995 190.79l-3.847-44.242s0-3.74 1.924-5.557 8.133-7 8.133-7 1.591-.375 2.874 3.259 10.152 39.967 10.152 39.967l-1.71.748-11.009-41.89-7.587 7.16a7.511 7.511 0 00-.748 5.13c.748 2.458 3.526 42.425 3.526 42.425z" fill="#47465a"/><path data-name="Path 453" d="M224.132 139.922l9.618 2.778 2.137-2.03-5.557-.748z" fill="#47465a"/><path data-name="Path 454" d="M138.631 61.922l1.56 23.392 34.09-3.313-1.357-22.867a2.3 2.3 0 00-2.489-2.156l-29.7 2.5a2.3 2.3 0 00-2.104 2.444z" fill="#7a799c"/><path data-name="Path 455" d="M185.715 88.734l-33.983 3.707-1.282.14-9.938-6.412V84.78l33.769-3.041z" fill="#7a799c"/><path data-name="Path 456" d="M151.732 92.44l-1.282.14-9.938-6.412v-1.244z" opacity=".1"/><path data-name="Path 457" d="M140.939 61.697l1.176 20.839 29.922-2.778-1.069-20.3z" fill="#9493b6"/><path data-name="Path 458" d="M158.785 88.307l3.633 2.458 11.007-1.069-3.74-2.351z" opacity=".1"/><path data-name="Path 459" d="M143.931 85.315l4.6 3.42 29.386-2.777-5.236-3.42z" fill="#9493b6"/><path data-name="Rectangle 366" fill="#ff6584" d="M196.081 53.736h21.694V75.43h-21.694z"/><path data-name="Rectangle 367" opacity=".1" d="M196.081 53.736h21.694V75.43h-21.694z"/><path data-name="Path 460" d="M203.552 63.775s3.06 8.288 0 9.818 10.966 0 10.966 0l3.953-3.188s-8.926-2.55-7.651-8.416-7.268 1.786-7.268 1.786z" fill="#fbbebe"/><path data-name="Path 461" d="M203.552 63.775s3.06 8.288 0 9.818 10.966 0 10.966 0l3.953-3.188s-8.926-2.55-7.651-8.416-7.268 1.786-7.268 1.786z" opacity=".1"/><path data-name="Path 462" d="M178.432 146.911s11.476 16.194 9.563 20.657-.893 7.268-4.718 8.8-4.845 4.335-1.53 4.208 7.651-1.02 8.288-2.168 2.168-6.631 4.335-7.4 6.248-3.7 3.315-7.268-10.322-16.721-9.752-18.051-9.501 1.222-9.501 1.222z" fill="#fbbebe"/><path data-name="Path 463" d="M202.401 114.907s-23.717 1.53-29.837 7.268 5.355 27.16 6.631 27.415 11.221-.765 10.838-3.57-7.141-14.281-7.141-14.281 8.8-3.188 13.644-3.953 10.2-4.335 10.2-4.335z" fill="#9493b6"/><path data-name="Path 464" d="M191.566 111.336s.383 14.154 3.953 14.664 0-10.838 0-10.838l-.128-4.335z" fill="#fbbebe"/><path data-name="Path 465" d="M202.404 74.23s-6.63-1.913-7.906 3.188-1.658 22.7-1.658 22.7l-2.3 14.026s4.208-1.275 5.1-.638l5.355-6.758z" fill="#044aaf"/><path data-name="Path 466" d="M202.404 74.23s-6.63-1.913-7.906 3.188-1.658 22.7-1.658 22.7l-2.3 14.026s4.208-1.275 5.1-.638l5.355-6.758z" opacity=".1"/><path data-name="Path 467" d="M211.464 149.628s4.456 8.76 7.134 8.633 5.228-1.785 6.5 3.443-.255 3.825 1.275 6.886 1.785 8.416-1.148 9.691-5.61 1.4-5.738 0 2.55-1.4-.51-6.375-9.563-14.026-12.241-14.919 4.728-7.359 4.728-7.359z" fill="#fbbebe"/><path data-name="Path 468" d="M223.06 109.679s9.181 15.3 3.188 19.764-23.844 13.006-23.844 13.006 9.563 6.5 10.073 8.671-4.59 8.033-6.375 8.161-7.013-5.865-12.624-7.4-9.053-12.5-2.933-16.576a68.392 68.392 0 0011.858-10.838l-1.784-9.817z" fill="#9493b6"/><path data-name="Path 469" d="M215.103 58.651c0 5.422-5.555 9.905-10.977 9.905a9.819 9.819 0 110-19.637c5.422.001 10.977 4.313 10.977 9.732z" fill="#fbbebe"/><path data-name="Path 470" d="M206.612 72.828s8.8-3.825 8.8-4.335 5.1 1.148 6.248 2.168 1.785.893 2.55 2.933-3.826 21.042-3.826 21.042 2.55 14.664 3.953 16.066-11.348 3.443-11.348 3.443-8.416 1.53-9.818 2.168-3.953 1.53-3.443 0 2.678-2.678-1.02-4.59c0 0 1.275-6.248 0-9.053s-7.141-13.006-2.423-20.4 6.886-10.073 6.886-10.073a3.592 3.592 0 003.441.631z" fill="#044aaf"/><path data-name="Path 471" d="M209.417 107.638s-9.946 4.411-12.942 4.82-12.05 2.7-7.077 4.744 12.5-1.02 12.5-1.02l10.583-4.463z" fill="#fbbebe"/><path data-name="Path 472" d="M220.126 72.438s3.673-1.777 4.693 4.471 4.59 26.012 0 28.945-15.174 7.651-15.174 7.651-6.248-4.208-3.315-5.738 9.946-5.866 10.966-7.4 2.051-18.609.266-21.415 2.564-6.514 2.564-6.514z" opacity=".1"/><path data-name="Path 473" d="M219.873 70.916s5.1-.255 6.12 5.993 4.59 26.012 0 28.945-15.174 7.651-15.174 7.651-6.248-4.208-3.315-5.738 9.946-5.865 10.966-7.4-.765-17.469-2.55-20.274 3.953-9.177 3.953-9.177z" fill="#044aaf"/><path data-name="Path 474" d="M201.707 42.211c-1.565.213-3.244.786-4.032 2.155a18.219 18.219 0 00-.807 2.17c-.819 1.97-2.809 3.146-4.246 4.723-1.872 2.055-2.8 5.152-1.7 7.7a31.506 31.506 0 001.649 2.773c1.469 2.62 1.548 5.766 1.589 8.769l.082 5.9a8.489 8.489 0 01-.249 2.681 2.872 2.872 0 01-1.738 1.937 4.5 4.5 0 005.245-1.791 4.6 4.6 0 01-1.407 4.083A9.127 9.127 0 00201.626 79a16.706 16.706 0 002.064-6.843 8.973 8.973 0 00-.215-3.775 11.818 11.818 0 00-1.237-2.375 18.338 18.338 0 01-2.667-6.339 8.135 8.135 0 011.478-6.541 5.908 5.908 0 014.667-2.14 5.2 5.2 0 014.331 2.652c.341.642.827 1.512 1.518 1.287a3.753 3.753 0 00.374-.184c.771-.351 1.646.341 1.986 1.117 1.072 2.447-.9 5.117-1.107 7.781-.19 2.478 1.191 4.814 2.842 6.671a21.918 21.918 0 0010.715 6.583 3.007 3.007 0 01-1.554-.966 20.406 20.406 0 005.015-.42 34.566 34.566 0 01-5.1-4.39 11.593 11.593 0 01-3.007-5.924c-.434-2.984.678-6.215-.593-8.949-1.162-2.5-4.042-3.9-5.094-6.444-1.069-2.588-1.761-4.836-4.591-5.963a19.461 19.461 0 00-9.744-1.627z" fill="#ff6584"/></g></g></g></svg>